<svg id="svg" version="1.1" xmlns="http://www.w3.org/2000/svg" xmlns:xlink="http://www.w3.org/1999/xlink" width="400" height="400" viewBox="0, 0, 400,400"><g id="svgg"><path id="path0" d="M185.820 74.924 C 184.760 75.571,183.630 76.890,183.613 77.500 C 183.606 77.775,183.420 78.000,183.200 78.000 C 182.936 78.000,182.800 91.792,182.800 118.576 C 182.800 141.861,182.648 159.247,182.444 159.373 C 182.248 159.494,181.793 159.010,181.433 158.296 C 176.539 148.606,163.171 136.400,157.452 136.400 C 157.181 136.400,156.789 136.251,156.580 136.070 C 154.176 133.979,136.688 132.986,128.800 134.492 C 123.683 135.470,123.141 135.610,121.304 136.437 C 120.372 136.857,119.472 137.201,119.304 137.202 C 118.789 137.205,112.039 140.794,111.140 141.544 C 110.843 141.791,109.610 142.781,108.400 143.744 C 105.790 145.820,101.698 150.300,99.909 153.040 C 99.205 154.118,98.533 155.090,98.415 155.200 C 98.297 155.310,97.880 156.030,97.488 156.800 C 97.097 157.570,96.425 158.830,95.996 159.600 C 94.707 161.913,92.572 166.856,91.848 169.200 C 91.475 170.410,91.002 171.760,90.798 172.200 C 90.595 172.640,90.250 173.900,90.033 175.000 C 89.815 176.100,89.439 177.810,89.197 178.800 C 84.943 196.180,83.729 224.228,86.384 243.800 C 86.593 245.340,86.958 248.130,87.196 250.000 C 87.434 251.870,87.802 253.713,88.014 254.095 C 88.226 254.477,88.400 255.334,88.400 256.000 C 88.400 256.666,88.560 257.523,88.756 257.905 C 88.952 258.287,89.418 259.950,89.791 261.600 C 90.164 263.250,90.605 264.960,90.770 265.400 C 90.935 265.840,91.476 267.460,91.972 269.000 C 93.969 275.205,97.354 281.693,102.301 288.800 C 103.158 290.031,109.947 296.800,110.326 296.801 C 110.477 296.801,111.230 297.346,112.000 298.012 C 114.239 299.948,122.708 304.000,124.513 304.000 C 124.891 304.000,125.200 304.155,125.200 304.344 C 125.200 304.904,136.345 306.491,140.400 306.508 C 143.168 306.519,148.952 305.931,149.400 305.592 C 149.620 305.425,150.925 305.161,152.300 305.005 C 153.675 304.849,154.800 304.559,154.800 304.361 C 154.800 304.162,155.239 304.000,155.776 304.000 C 156.313 304.000,156.864 303.820,157.000 303.600 C 157.136 303.380,157.524 303.200,157.863 303.200 C 159.221 303.200,166.815 299.319,168.000 298.019 C 168.110 297.899,169.042 297.124,170.071 296.297 C 172.303 294.504,176.800 290.057,176.800 289.643 C 176.800 289.483,177.115 289.002,177.500 288.575 C 178.278 287.714,181.200 283.324,181.200 283.017 C 181.200 282.910,181.631 281.872,182.158 280.711 C 182.685 279.550,183.229 278.259,183.367 277.843 C 183.912 276.204,184.220 277.981,184.702 285.532 C 185.611 299.798,186.020 301.195,189.819 302.991 L 191.950 304.000 208.326 304.000 C 228.018 304.000,228.499 303.886,229.829 298.912 C 230.394 296.800,230.345 80.901,229.780 78.662 C 229.622 78.036,228.782 76.821,227.914 75.962 L 226.337 74.400 206.468 74.424 C 191.836 74.441,186.394 74.573,185.820 74.924 M283.529 138.701 C 282.467 139.412,280.800 141.292,280.800 141.780 C 280.800 141.920,280.617 142.251,280.394 142.517 C 279.555 143.516,278.000 146.050,278.000 146.418 C 278.000 146.628,277.820 146.800,277.600 146.800 C 277.380 146.800,277.200 146.985,277.200 147.211 C 277.200 147.438,276.094 149.373,274.743 151.511 C 273.392 153.650,271.834 156.210,271.282 157.200 C 270.730 158.190,270.171 159.090,270.039 159.200 C 269.742 159.448,268.888 160.798,268.520 161.600 C 268.281 162.120,265.190 167.121,263.688 169.418 C 263.407 169.848,263.071 170.515,262.942 170.900 C 262.812 171.285,262.548 171.600,262.353 171.600 C 262.159 171.600,262.000 171.772,262.000 171.983 C 262.000 172.292,258.540 178.063,256.099 181.828 C 255.824 182.252,255.437 182.967,255.241 183.416 C 255.044 183.865,254.595 184.473,254.242 184.765 C 253.889 185.058,253.600 185.546,253.600 185.849 C 253.600 186.152,253.441 186.400,253.247 186.400 C 253.052 186.400,252.788 186.715,252.658 187.100 C 252.529 187.485,252.193 188.156,251.912 188.592 C 251.630 189.027,250.521 190.827,249.447 192.592 C 248.373 194.356,247.158 196.288,246.747 196.884 C 246.336 197.480,246.000 198.155,246.000 198.384 C 246.000 198.613,245.841 198.800,245.647 198.800 C 245.452 198.800,245.179 199.115,245.040 199.500 C 244.751 200.300,244.729 200.337,241.100 206.099 C 239.615 208.457,238.400 210.569,238.400 210.793 C 238.400 211.017,238.244 211.200,238.054 211.200 C 237.433 211.200,236.400 214.582,236.400 216.617 C 236.400 218.804,240.165 226.846,243.257 231.262 C 243.665 231.846,244.000 232.439,244.000 232.581 C 244.000 232.723,244.630 233.823,245.400 235.027 C 246.170 236.231,246.800 237.285,246.800 237.369 C 246.800 237.454,247.451 238.665,248.247 240.062 C 250.079 243.276,251.885 246.547,252.961 248.600 C 253.423 249.480,253.905 250.290,254.032 250.400 C 254.160 250.510,254.952 251.860,255.792 253.400 C 257.617 256.745,258.705 258.717,260.208 261.400 C 260.824 262.500,261.524 263.760,261.764 264.200 C 262.004 264.640,262.292 265.090,262.404 265.200 C 262.516 265.310,262.966 266.120,263.404 267.000 C 263.842 267.880,264.291 268.690,264.403 268.800 C 264.630 269.024,266.735 272.907,267.382 274.297 C 267.612 274.790,267.935 275.195,268.100 275.197 C 268.265 275.199,268.400 275.389,268.400 275.619 C 268.400 275.850,268.985 276.979,269.700 278.128 C 270.415 279.278,271.352 280.934,271.783 281.809 C 272.214 282.684,272.867 283.850,273.235 284.400 C 273.602 284.950,274.651 286.808,275.567 288.530 C 277.821 292.771,278.160 293.368,278.446 293.600 C 278.581 293.710,278.819 294.205,278.973 294.700 C 279.128 295.195,279.422 295.600,279.627 295.600 C 279.832 295.600,280.000 295.960,280.000 296.400 C 280.000 296.840,280.159 297.200,280.353 297.200 C 280.548 297.200,280.808 297.515,280.932 297.900 C 282.916 304.063,282.512 303.968,306.624 303.971 C 329.221 303.974,328.946 304.004,330.449 301.400 C 331.172 300.147,331.477 296.000,330.847 296.000 C 330.652 296.000,330.388 295.685,330.259 295.300 C 330.024 294.596,328.471 291.802,326.869 289.200 C 326.395 288.430,325.881 287.530,325.728 287.200 C 325.574 286.870,324.853 285.664,324.124 284.519 C 323.396 283.375,322.800 282.343,322.800 282.227 C 322.800 282.111,322.170 281.031,321.400 279.827 C 320.630 278.623,320.000 277.543,320.000 277.427 C 320.000 277.311,319.415 276.263,318.700 275.098 C 316.708 271.853,316.592 271.659,314.214 267.600 C 312.989 265.510,311.178 262.450,310.190 260.800 C 309.201 259.150,308.212 257.440,307.992 257.000 C 307.772 256.560,307.134 255.480,306.576 254.600 C 306.017 253.720,305.349 252.505,305.092 251.900 C 304.835 251.295,304.484 250.800,304.312 250.800 C 304.141 250.800,304.000 250.611,304.000 250.381 C 304.000 250.150,303.403 249.025,302.674 247.881 C 301.945 246.736,300.820 244.810,300.174 243.600 C 299.528 242.390,298.687 241.053,298.305 240.629 C 297.922 240.206,297.493 239.486,297.352 239.029 C 297.211 238.573,296.779 237.750,296.393 237.200 C 295.639 236.125,291.600 229.174,291.600 228.950 C 291.600 228.876,290.970 227.831,290.200 226.627 C 289.430 225.423,288.800 224.250,288.800 224.019 C 288.800 223.789,288.641 223.600,288.447 223.600 C 288.252 223.600,287.994 223.285,287.872 222.900 C 287.621 222.104,285.925 219.103,285.556 218.800 C 285.422 218.690,285.026 218.043,284.677 217.361 C 283.992 216.024,283.885 216.338,286.312 212.590 C 286.593 212.156,286.929 211.485,287.058 211.100 C 287.188 210.715,287.452 210.400,287.647 210.400 C 287.841 210.400,288.000 210.225,288.000 210.011 C 288.000 209.797,289.530 207.208,291.400 204.257 C 293.270 201.307,294.800 198.793,294.800 198.672 C 294.800 198.550,296.240 196.200,298.000 193.449 C 299.760 190.698,301.200 188.257,301.200 188.024 C 301.200 187.791,301.335 187.598,301.500 187.595 C 301.665 187.593,302.141 186.879,302.558 186.009 C 302.975 185.139,303.650 184.068,304.058 183.630 C 304.466 183.192,304.800 182.709,304.800 182.557 C 304.800 182.404,305.700 180.877,306.800 179.162 C 307.900 177.447,308.800 175.854,308.800 175.622 C 308.800 175.390,308.980 175.200,309.200 175.200 C 309.420 175.200,309.600 175.014,309.600 174.786 C 309.600 174.448,311.820 170.707,314.703 166.188 C 314.979 165.755,315.329 165.130,315.480 164.800 C 315.632 164.470,316.710 162.717,317.878 160.904 C 319.045 159.091,320.000 157.426,320.000 157.204 C 320.000 156.982,320.160 156.800,320.357 156.800 C 320.553 156.800,320.826 156.350,320.964 155.800 C 321.102 155.250,321.392 154.800,321.608 154.800 C 321.823 154.800,322.000 154.611,322.000 154.381 C 322.000 153.940,324.704 149.545,325.186 149.200 C 325.341 149.090,325.947 147.976,326.533 146.725 C 328.063 143.461,327.948 142.102,325.893 139.199 L 325.185 138.200 304.893 138.093 C 285.954 137.993,284.529 138.033,283.529 138.701 M164.791 169.225 C 173.376 172.054,178.830 177.901,183.160 188.919 C 183.667 190.208,183.803 250.643,183.300 250.867 C 183.135 250.940,182.506 251.942,181.902 253.093 C 180.048 256.628,174.428 262.557,171.548 264.016 C 170.697 264.447,169.321 265.145,168.491 265.566 C 162.588 268.559,153.030 268.597,146.800 265.651 C 143.470 264.076,139.430 260.374,137.771 257.376 C 136.099 254.357,134.400 250.663,134.400 250.050 C 134.400 249.853,134.116 248.726,133.769 247.546 C 132.196 242.198,131.632 239.104,131.118 233.000 C 130.018 219.958,130.854 200.651,132.866 192.600 C 133.086 191.720,133.423 190.370,133.614 189.600 C 137.881 172.431,150.163 164.405,164.791 169.225 " stroke="none" fill="#d7d7d7" fill-rule="evenodd"></path><path id="path1" d="M179.700 0.273 C 177.665 0.360,176.000 0.583,176.000 0.771 C 176.000 0.958,173.840 1.241,171.200 1.400 C 168.560 1.559,166.400 1.849,166.400 2.044 C 166.400 2.240,165.590 2.400,164.600 2.400 C 163.610 2.400,162.800 2.580,162.800 2.800 C 162.800 3.020,161.990 3.200,161.000 3.200 C 160.010 3.200,159.200 3.359,159.200 3.553 C 159.200 3.747,157.850 4.033,156.200 4.187 C 154.550 4.342,153.200 4.633,153.200 4.834 C 153.200 5.035,152.570 5.200,151.800 5.200 C 151.030 5.200,150.400 5.380,150.400 5.600 C 150.400 5.820,149.995 5.998,149.500 5.997 C 148.252 5.992,143.030 7.333,142.867 7.700 C 142.793 7.865,142.118 8.000,141.367 8.000 C 140.615 8.000,140.000 8.163,140.000 8.362 C 140.000 8.562,139.100 8.849,138.000 9.000 C 136.901 9.151,135.900 9.438,135.777 9.637 C 135.654 9.837,135.113 10.000,134.576 10.000 C 134.039 10.000,133.600 10.180,133.600 10.400 C 133.600 10.620,133.150 10.800,132.600 10.800 C 132.050 10.800,131.600 10.966,131.600 11.168 C 131.600 11.371,131.015 11.651,130.300 11.792 C 129.585 11.932,128.640 12.201,128.200 12.390 C 127.760 12.579,126.815 12.972,126.100 13.264 C 125.385 13.556,124.800 13.920,124.800 14.073 C 124.800 14.226,123.990 14.472,123.000 14.621 C 122.010 14.769,121.200 15.017,121.200 15.171 C 121.200 15.325,120.570 15.698,119.800 16.000 C 119.030 16.302,118.400 16.675,118.400 16.829 C 118.400 16.983,117.590 17.231,116.600 17.379 C 115.610 17.528,114.800 17.818,114.800 18.025 C 114.800 18.231,114.530 18.400,114.200 18.400 C 113.870 18.400,113.600 18.580,113.600 18.800 C 113.600 19.020,113.329 19.200,112.997 19.200 C 112.318 19.200,108.270 21.244,108.071 21.687 C 108.000 21.845,107.325 22.090,106.571 22.232 C 105.817 22.373,105.200 22.649,105.200 22.845 C 105.200 23.040,104.930 23.200,104.600 23.200 C 104.270 23.200,104.000 23.380,104.000 23.600 C 104.000 23.820,103.640 24.000,103.200 24.000 C 102.760 24.000,102.400 24.177,102.400 24.392 C 102.400 24.608,101.950 24.898,101.400 25.036 C 100.850 25.174,100.400 25.447,100.400 25.643 C 100.400 25.840,100.040 26.000,99.600 26.000 C 99.160 26.000,98.800 26.180,98.800 26.400 C 98.800 26.620,98.530 26.800,98.200 26.800 C 97.870 26.800,97.600 26.977,97.600 27.192 C 97.600 27.408,97.150 27.698,96.600 27.836 C 96.050 27.974,95.600 28.247,95.600 28.443 C 95.600 28.640,95.340 28.800,95.023 28.800 C 94.705 28.800,94.210 29.131,93.923 29.535 C 93.635 29.940,92.905 30.393,92.300 30.543 C 91.695 30.693,91.200 30.992,91.200 31.208 C 91.200 31.423,90.930 31.600,90.600 31.600 C 90.270 31.600,90.000 31.739,90.000 31.909 C 90.000 32.079,89.370 32.557,88.600 32.972 C 87.830 33.387,87.200 33.878,87.200 34.063 C 87.200 34.248,86.859 34.400,86.443 34.400 C 86.026 34.400,85.582 34.670,85.455 35.000 C 85.329 35.330,84.965 35.600,84.648 35.600 C 84.331 35.600,83.617 36.140,83.061 36.800 C 82.506 37.460,81.795 38.000,81.482 38.000 C 81.168 38.000,80.574 38.450,80.161 39.000 C 79.748 39.550,79.174 40.000,78.886 40.000 C 78.598 40.000,77.945 40.450,77.435 41.000 C 76.925 41.550,76.226 42.000,75.881 42.000 C 75.536 42.000,75.143 42.351,75.006 42.780 C 74.870 43.208,74.408 43.670,73.980 43.806 C 73.551 43.943,73.200 44.222,73.200 44.427 C 73.200 44.632,72.975 44.803,72.700 44.807 C 72.425 44.810,71.421 45.620,70.468 46.607 C 69.515 47.593,68.569 48.400,68.366 48.400 C 67.866 48.400,48.400 67.843,48.400 68.342 C 48.400 68.559,47.593 69.515,46.607 70.468 C 45.620 71.421,44.810 72.425,44.807 72.700 C 44.803 72.975,44.632 73.200,44.427 73.200 C 44.222 73.200,43.943 73.551,43.806 73.980 C 43.670 74.408,43.208 74.870,42.780 75.006 C 42.351 75.143,42.000 75.536,42.000 75.881 C 42.000 76.226,41.550 76.925,41.000 77.435 C 40.450 77.945,40.000 78.598,40.000 78.886 C 40.000 79.174,39.550 79.748,39.000 80.161 C 38.450 80.574,38.000 81.168,38.000 81.482 C 38.000 81.795,37.460 82.506,36.800 83.061 C 36.140 83.617,35.600 84.331,35.600 84.648 C 35.600 84.965,35.330 85.329,35.000 85.455 C 34.670 85.582,34.400 86.026,34.400 86.443 C 34.400 86.859,34.248 87.200,34.063 87.200 C 33.878 87.200,33.387 87.830,32.972 88.600 C 32.557 89.370,32.079 90.000,31.909 90.000 C 31.739 90.000,31.600 90.270,31.600 90.600 C 31.600 90.930,31.423 91.200,31.208 91.200 C 30.992 91.200,30.693 91.695,30.544 92.300 C 30.394 92.905,29.941 93.691,29.536 94.047 C 29.131 94.403,28.800 94.898,28.800 95.147 C 28.800 95.396,28.640 95.600,28.443 95.600 C 28.247 95.600,27.974 96.050,27.836 96.600 C 27.698 97.150,27.408 97.600,27.192 97.600 C 26.977 97.600,26.800 97.870,26.800 98.200 C 26.800 98.530,26.620 98.800,26.400 98.800 C 26.180 98.800,26.000 99.160,26.000 99.600 C 26.000 100.040,25.840 100.400,25.643 100.400 C 25.447 100.400,25.174 100.850,25.036 101.400 C 24.898 101.950,24.608 102.400,24.392 102.400 C 24.177 102.400,24.000 102.760,24.000 103.200 C 24.000 103.640,23.820 104.000,23.600 104.000 C 23.380 104.000,23.200 104.270,23.200 104.600 C 23.200 104.930,23.040 105.200,22.845 105.200 C 22.649 105.200,22.373 105.817,22.232 106.571 C 22.090 107.325,21.845 108.000,21.687 108.071 C 21.244 108.270,19.200 112.318,19.200 112.997 C 19.200 113.329,19.020 113.600,18.800 113.600 C 18.580 113.600,18.400 113.870,18.400 114.200 C 18.400 114.530,18.231 114.800,18.025 114.800 C 17.818 114.800,17.528 115.610,17.379 116.600 C 17.231 117.590,16.983 118.400,16.829 118.400 C 16.675 118.400,16.302 119.030,16.000 119.800 C 15.698 120.570,15.325 121.200,15.171 121.200 C 15.017 121.200,14.769 122.010,14.621 123.000 C 14.472 123.990,14.226 124.800,14.073 124.800 C 13.920 124.800,13.556 125.385,13.264 126.100 C 12.972 126.815,12.579 127.760,12.390 128.200 C 12.201 128.640,11.932 129.585,11.792 130.300 C 11.651 131.015,11.371 131.600,11.168 131.600 C 10.966 131.600,10.800 132.050,10.800 132.600 C 10.800 133.150,10.620 133.600,10.400 133.600 C 10.180 133.600,10.000 134.039,10.000 134.576 C 10.000 135.113,9.837 135.654,9.637 135.777 C 9.438 135.900,9.151 136.901,9.000 138.000 C 8.849 139.100,8.562 140.000,8.362 140.000 C 8.163 140.000,8.000 140.615,8.000 141.367 C 8.000 142.118,7.865 142.793,7.700 142.867 C 7.333 143.030,5.992 148.252,5.997 149.500 C 5.998 149.995,5.820 150.400,5.600 150.400 C 5.380 150.400,5.200 151.030,5.200 151.800 C 5.200 152.570,5.035 153.200,4.834 153.200 C 4.633 153.200,4.342 154.550,4.187 156.200 C 4.033 157.850,3.747 159.200,3.553 159.200 C 3.359 159.200,3.200 160.010,3.200 161.000 C 3.200 161.990,3.020 162.800,2.800 162.800 C 2.580 162.800,2.400 163.610,2.400 164.600 C 2.400 165.590,2.242 166.400,2.048 166.400 C 1.854 166.400,1.565 168.515,1.404 171.100 C 1.231 173.878,0.925 175.917,0.656 176.085 C 0.323 176.294,0.200 182.749,0.200 200.000 C 0.200 217.251,0.323 223.706,0.656 223.915 C 0.925 224.083,1.231 226.122,1.404 228.900 C 1.565 231.485,1.854 233.600,2.048 233.600 C 2.242 233.600,2.400 234.410,2.400 235.400 C 2.400 236.390,2.580 237.200,2.800 237.200 C 3.020 237.200,3.200 238.010,3.200 239.000 C 3.200 239.990,3.359 240.800,3.553 240.800 C 3.747 240.800,4.033 242.150,4.187 243.800 C 4.342 245.450,4.633 246.800,4.834 246.800 C 5.035 246.800,5.200 247.430,5.200 248.200 C 5.200 248.970,5.380 249.600,5.600 249.600 C 5.820 249.600,5.998 250.005,5.997 250.500 C 5.992 251.748,7.333 256.970,7.700 257.133 C 7.865 257.207,8.000 257.882,8.000 258.633 C 8.000 259.385,8.163 260.000,8.362 260.000 C 8.562 260.000,8.849 260.900,9.000 262.000 C 9.151 263.099,9.438 264.100,9.637 264.223 C 9.837 264.346,10.000 264.887,10.000 265.424 C 10.000 265.961,10.180 266.400,10.400 266.400 C 10.620 266.400,10.800 266.850,10.800 267.400 C 10.800 267.950,10.966 268.400,11.168 268.400 C 11.371 268.400,11.651 268.985,11.792 269.700 C 11.932 270.415,12.201 271.360,12.390 271.800 C 12.579 272.240,12.972 273.185,13.264 273.900 C 13.556 274.615,13.920 275.200,14.073 275.200 C 14.226 275.200,14.472 276.010,14.621 277.000 C 14.769 277.990,15.050 278.800,15.245 278.800 C 15.440 278.800,15.600 279.160,15.600 279.600 C 15.600 280.040,15.780 280.400,16.000 280.400 C 16.220 280.400,16.400 280.670,16.400 281.000 C 16.400 281.330,16.560 281.600,16.755 281.600 C 16.950 281.600,17.231 282.410,17.379 283.400 C 17.528 284.390,17.818 285.200,18.025 285.200 C 18.231 285.200,18.400 285.470,18.400 285.800 C 18.400 286.130,18.580 286.400,18.800 286.400 C 19.020 286.400,19.200 286.671,19.200 287.003 C 19.200 287.600,21.168 291.614,21.650 292.000 C 21.787 292.110,22.026 292.785,22.182 293.500 C 22.337 294.215,22.629 294.800,22.832 294.800 C 23.034 294.800,23.200 295.070,23.200 295.400 C 23.200 295.730,23.380 296.000,23.600 296.000 C 23.820 296.000,24.000 296.360,24.000 296.800 C 24.000 297.240,24.177 297.600,24.392 297.600 C 24.608 297.600,24.898 298.050,25.036 298.600 C 25.174 299.150,25.447 299.600,25.643 299.600 C 25.840 299.600,26.000 299.960,26.000 300.400 C 26.000 300.840,26.180 301.200,26.400 301.200 C 26.620 301.200,26.800 301.470,26.800 301.800 C 26.800 302.130,26.977 302.400,27.192 302.400 C 27.408 302.400,27.698 302.850,27.836 303.400 C 27.974 303.950,28.247 304.400,28.443 304.400 C 28.640 304.400,28.800 304.660,28.800 304.977 C 28.800 305.295,29.131 305.790,29.535 306.077 C 29.940 306.365,30.393 307.095,30.543 307.700 C 30.693 308.305,30.992 308.800,31.208 308.800 C 31.423 308.800,31.600 309.070,31.600 309.400 C 31.600 309.730,31.739 310.000,31.909 310.000 C 32.079 310.000,32.557 310.630,32.972 311.400 C 33.387 312.170,33.878 312.800,34.063 312.800 C 34.248 312.800,34.400 313.141,34.400 313.557 C 34.400 313.974,34.670 314.418,35.000 314.545 C 35.330 314.671,35.600 315.035,35.600 315.352 C 35.600 315.669,36.140 316.383,36.800 316.939 C 37.460 317.494,38.000 318.205,38.000 318.518 C 38.000 318.832,38.450 319.426,39.000 319.839 C 39.550 320.252,40.000 320.826,40.000 321.114 C 40.000 321.402,40.450 322.055,41.000 322.565 C 41.550 323.075,42.000 323.774,42.000 324.119 C 42.000 324.464,42.351 324.857,42.780 324.994 C 43.208 325.130,43.670 325.592,43.806 326.020 C 43.943 326.449,44.222 326.800,44.427 326.800 C 44.632 326.800,44.803 327.025,44.807 327.300 C 44.810 327.575,45.620 328.579,46.607 329.532 C 47.593 330.485,48.400 331.435,48.400 331.644 C 48.400 332.144,67.853 351.600,68.352 351.600 C 68.563 351.600,69.515 352.407,70.468 353.393 C 71.421 354.380,72.425 355.190,72.700 355.193 C 72.975 355.197,73.200 355.368,73.200 355.573 C 73.200 355.778,73.551 356.057,73.980 356.194 C 74.408 356.330,74.870 356.792,75.006 357.220 C 75.143 357.649,75.536 358.000,75.881 358.000 C 76.226 358.000,76.925 358.450,77.435 359.000 C 77.945 359.550,78.598 360.000,78.886 360.000 C 79.174 360.000,79.748 360.450,80.161 361.000 C 80.574 361.550,81.168 362.000,81.482 362.000 C 81.795 362.000,82.506 362.540,83.061 363.200 C 83.617 363.860,84.331 364.400,84.648 364.400 C 84.965 364.400,85.329 364.670,85.455 365.000 C 85.582 365.330,85.960 365.600,86.296 365.600 C 86.632 365.600,87.197 365.934,87.553 366.343 C 87.909 366.751,88.605 367.213,89.100 367.370 C 89.595 367.526,90.000 367.822,90.000 368.027 C 90.000 368.232,90.270 368.400,90.600 368.400 C 90.930 368.400,91.200 368.577,91.200 368.792 C 91.200 369.008,91.695 369.307,92.300 369.456 C 92.905 369.606,93.691 370.059,94.047 370.464 C 94.403 370.869,94.898 371.200,95.147 371.200 C 95.396 371.200,95.600 371.360,95.600 371.557 C 95.600 371.753,96.050 372.026,96.600 372.164 C 97.150 372.302,97.600 372.592,97.600 372.808 C 97.600 373.023,97.870 373.200,98.200 373.200 C 98.530 373.200,98.800 373.380,98.800 373.600 C 98.800 373.820,99.160 374.000,99.600 374.000 C 100.040 374.000,100.400 374.160,100.400 374.357 C 100.400 374.553,100.850 374.826,101.400 374.964 C 101.950 375.102,102.400 375.392,102.400 375.608 C 102.400 375.823,102.760 376.000,103.200 376.000 C 103.640 376.000,104.000 376.180,104.000 376.400 C 104.000 376.620,104.270 376.800,104.600 376.800 C 104.930 376.800,105.200 376.960,105.200 377.155 C 105.200 377.351,105.830 377.629,106.600 377.774 C 107.370 377.918,108.000 378.174,108.000 378.343 C 108.000 378.512,108.630 378.898,109.400 379.200 C 110.170 379.502,110.800 379.888,110.800 380.057 C 110.800 380.226,111.430 380.482,112.200 380.626 C 112.970 380.771,113.600 381.049,113.600 381.245 C 113.600 381.440,113.870 381.600,114.200 381.600 C 114.530 381.600,114.800 381.769,114.800 381.975 C 114.800 382.182,115.610 382.472,116.600 382.621 C 117.590 382.769,118.400 383.017,118.400 383.171 C 118.400 383.325,119.030 383.698,119.800 384.000 C 120.570 384.302,121.200 384.675,121.200 384.829 C 121.200 384.983,122.010 385.231,123.000 385.379 C 123.990 385.528,124.800 385.774,124.800 385.927 C 124.800 386.080,125.385 386.444,126.100 386.736 C 126.815 387.028,127.760 387.421,128.200 387.610 C 128.640 387.799,129.585 388.068,130.300 388.208 C 131.015 388.349,131.600 388.629,131.600 388.832 C 131.600 389.034,132.050 389.200,132.600 389.200 C 133.150 389.200,133.600 389.380,133.600 389.600 C 133.600 389.820,134.039 390.000,134.576 390.000 C 135.113 390.000,135.654 390.163,135.777 390.363 C 135.900 390.562,136.901 390.849,138.000 391.000 C 139.100 391.151,140.000 391.438,140.000 391.638 C 140.000 391.837,140.630 392.000,141.400 392.000 C 142.170 392.000,142.800 392.180,142.800 392.400 C 142.800 392.620,143.239 392.800,143.776 392.800 C 144.313 392.800,144.855 392.966,144.981 393.169 C 145.106 393.371,146.377 393.662,147.804 393.815 C 149.232 393.968,150.400 394.252,150.400 394.447 C 150.400 394.641,151.030 394.800,151.800 394.800 C 152.570 394.800,153.200 394.965,153.200 395.166 C 153.200 395.367,154.550 395.658,156.200 395.813 C 157.850 395.967,159.200 396.253,159.200 396.447 C 159.200 396.641,160.010 396.800,161.000 396.800 C 161.990 396.800,162.800 396.980,162.800 397.200 C 162.800 397.420,163.610 397.600,164.600 397.600 C 165.590 397.600,166.400 397.758,166.400 397.952 C 166.400 398.146,168.515 398.435,171.100 398.596 C 173.878 398.769,175.917 399.075,176.085 399.344 C 176.493 399.996,223.507 399.996,223.915 399.344 C 224.083 399.075,226.122 398.769,228.900 398.596 C 231.485 398.435,233.600 398.146,233.600 397.952 C 233.600 397.758,234.410 397.600,235.400 397.600 C 236.390 397.600,237.200 397.420,237.200 397.200 C 237.200 396.980,238.010 396.800,239.000 396.800 C 239.990 396.800,240.800 396.641,240.800 396.447 C 240.800 396.253,242.150 395.967,243.800 395.813 C 245.450 395.658,246.800 395.367,246.800 395.166 C 246.800 394.965,247.430 394.800,248.200 394.800 C 248.970 394.800,249.600 394.641,249.600 394.447 C 249.600 394.252,250.768 393.968,252.196 393.815 C 253.623 393.662,254.894 393.371,255.019 393.169 C 255.145 392.966,255.687 392.800,256.224 392.800 C 256.761 392.800,257.200 392.620,257.200 392.400 C 257.200 392.180,257.830 392.000,258.600 392.000 C 259.370 392.000,260.000 391.837,260.000 391.638 C 260.000 391.438,260.900 391.151,262.000 391.000 C 263.099 390.849,264.100 390.562,264.223 390.363 C 264.346 390.163,264.887 390.000,265.424 390.000 C 265.961 390.000,266.400 389.820,266.400 389.600 C 266.400 389.380,266.850 389.200,267.400 389.200 C 267.950 389.200,268.400 389.034,268.400 388.832 C 268.400 388.629,268.985 388.349,269.700 388.208 C 270.415 388.068,271.360 387.799,271.800 387.610 C 272.240 387.421,273.185 387.028,273.900 386.736 C 274.615 386.444,275.200 386.080,275.200 385.927 C 275.200 385.774,276.010 385.528,277.000 385.379 C 277.990 385.231,278.800 384.950,278.800 384.755 C 278.800 384.560,279.160 384.400,279.600 384.400 C 280.040 384.400,280.400 384.220,280.400 384.000 C 280.400 383.780,280.670 383.600,281.000 383.600 C 281.330 383.600,281.600 383.440,281.600 383.245 C 281.600 383.050,282.410 382.769,283.400 382.621 C 284.390 382.472,285.200 382.182,285.200 381.975 C 285.200 381.769,285.470 381.600,285.800 381.600 C 286.130 381.600,286.400 381.440,286.400 381.245 C 286.400 381.049,287.030 380.771,287.800 380.626 C 288.570 380.482,289.200 380.226,289.200 380.057 C 289.200 379.888,289.830 379.502,290.600 379.200 C 291.370 378.898,292.000 378.524,292.000 378.370 C 292.000 378.215,292.630 377.971,293.400 377.826 C 294.170 377.682,294.800 377.392,294.800 377.182 C 294.800 376.972,295.070 376.800,295.400 376.800 C 295.730 376.800,296.000 376.620,296.000 376.400 C 296.000 376.180,296.360 376.000,296.800 376.000 C 297.240 376.000,297.600 375.823,297.600 375.608 C 297.600 375.392,298.050 375.102,298.600 374.964 C 299.150 374.826,299.600 374.553,299.600 374.357 C 299.600 374.160,299.960 374.000,300.400 374.000 C 300.840 374.000,301.200 373.820,301.200 373.600 C 301.200 373.380,301.470 373.200,301.800 373.200 C 302.130 373.200,302.400 373.023,302.400 372.808 C 302.400 372.592,302.850 372.302,303.400 372.164 C 303.950 372.026,304.400 371.753,304.400 371.557 C 304.400 371.360,304.660 371.200,304.977 371.200 C 305.295 371.200,305.790 370.869,306.077 370.465 C 306.365 370.060,307.095 369.607,307.700 369.457 C 308.305 369.307,308.800 369.008,308.800 368.792 C 308.800 368.577,309.070 368.400,309.400 368.400 C 309.730 368.400,310.000 368.232,310.000 368.027 C 310.000 367.822,310.405 367.526,310.900 367.370 C 311.395 367.213,312.091 366.751,312.447 366.343 C 312.803 365.934,313.388 365.600,313.747 365.600 C 314.106 365.600,314.400 365.428,314.400 365.219 C 314.400 365.009,315.023 364.542,315.785 364.180 C 316.547 363.819,317.279 363.180,317.412 362.761 C 317.545 362.343,317.977 362.000,318.371 362.000 C 318.765 362.000,319.426 361.550,319.839 361.000 C 320.252 360.450,320.826 360.000,321.114 360.000 C 321.402 360.000,322.055 359.550,322.565 359.000 C 323.075 358.450,323.774 358.000,324.119 358.000 C 324.464 358.000,324.857 357.649,324.994 357.220 C 325.130 356.792,325.592 356.330,326.020 356.194 C 326.449 356.057,326.800 355.778,326.800 355.573 C 326.800 355.368,326.988 355.200,327.217 355.200 C 327.903 355.200,330.800 352.598,330.800 351.982 C 330.800 351.772,331.078 351.600,331.418 351.600 C 332.226 351.600,351.600 332.226,351.600 331.418 C 351.600 331.078,351.772 330.800,351.982 330.800 C 352.598 330.800,355.200 327.903,355.200 327.217 C 355.200 326.988,355.368 326.800,355.573 326.800 C 355.778 326.800,356.057 326.449,356.194 326.020 C 356.330 325.592,356.792 325.130,357.220 324.994 C 357.649 324.857,358.000 324.464,358.000 324.119 C 358.000 323.774,358.450 323.075,359.000 322.565 C 359.550 322.055,360.000 321.402,360.000 321.114 C 360.000 320.826,360.450 320.252,361.000 319.839 C 361.550 319.426,362.000 318.765,362.000 318.371 C 362.000 317.977,362.343 317.545,362.761 317.412 C 363.180 317.279,363.819 316.547,364.180 315.785 C 364.542 315.023,365.009 314.400,365.219 314.400 C 365.428 314.400,365.600 314.106,365.600 313.747 C 365.600 313.388,365.934 312.803,366.343 312.447 C 366.751 312.091,367.213 311.395,367.370 310.900 C 367.526 310.405,367.822 310.000,368.027 310.000 C 368.232 310.000,368.400 309.730,368.400 309.400 C 368.400 309.070,368.577 308.800,368.792 308.800 C 369.008 308.800,369.307 308.305,369.456 307.700 C 369.606 307.095,370.059 306.309,370.464 305.953 C 370.869 305.597,371.200 305.102,371.200 304.853 C 371.200 304.604,371.360 304.400,371.557 304.400 C 371.753 304.400,372.026 303.950,372.164 303.400 C 372.302 302.850,372.592 302.400,372.808 302.400 C 373.023 302.400,373.200 302.130,373.200 301.800 C 373.200 301.470,373.380 301.200,373.600 301.200 C 373.820 301.200,374.000 300.840,374.000 300.400 C 374.000 299.960,374.160 299.600,374.357 299.600 C 374.553 299.600,374.826 299.150,374.964 298.600 C 375.102 298.050,375.392 297.600,375.608 297.600 C 375.823 297.600,376.000 297.240,376.000 296.800 C 376.000 296.360,376.180 296.000,376.400 296.000 C 376.620 296.000,376.800 295.730,376.800 295.400 C 376.800 295.070,376.972 294.800,377.182 294.800 C 377.392 294.800,377.682 294.170,377.826 293.400 C 377.971 292.630,378.215 292.000,378.370 292.000 C 378.524 292.000,378.898 291.370,379.200 290.600 C 379.502 289.830,379.888 289.200,380.057 289.200 C 380.226 289.200,380.482 288.570,380.626 287.800 C 380.771 287.030,381.049 286.400,381.245 286.400 C 381.440 286.400,381.600 286.130,381.600 285.800 C 381.600 285.470,381.769 285.200,381.975 285.200 C 382.182 285.200,382.472 284.390,382.621 283.400 C 382.769 282.410,383.050 281.600,383.245 281.600 C 383.440 281.600,383.600 281.330,383.600 281.000 C 383.600 280.670,383.780 280.400,384.000 280.400 C 384.220 280.400,384.400 280.040,384.400 279.600 C 384.400 279.160,384.560 278.800,384.755 278.800 C 384.950 278.800,385.231 277.990,385.379 277.000 C 385.528 276.010,385.774 275.200,385.927 275.200 C 386.080 275.200,386.444 274.615,386.736 273.900 C 387.028 273.185,387.421 272.240,387.610 271.800 C 387.799 271.360,388.068 270.415,388.208 269.700 C 388.349 268.985,388.629 268.400,388.832 268.400 C 389.034 268.400,389.200 267.950,389.200 267.400 C 389.200 266.850,389.380 266.400,389.600 266.400 C 389.820 266.400,390.000 265.961,390.000 265.424 C 390.000 264.887,390.163 264.346,390.363 264.223 C 390.562 264.100,390.849 263.099,391.000 262.000 C 391.151 260.900,391.438 260.000,391.638 260.000 C 391.837 260.000,392.000 259.370,392.000 258.600 C 392.000 257.830,392.180 257.200,392.400 257.200 C 392.620 257.200,392.800 256.761,392.800 256.224 C 392.800 255.687,392.966 255.145,393.169 255.019 C 393.371 254.894,393.662 253.623,393.815 252.196 C 393.968 250.768,394.252 249.600,394.447 249.600 C 394.641 249.600,394.800 248.970,394.800 248.200 C 394.800 247.430,394.965 246.800,395.166 246.800 C 395.367 246.800,395.658 245.450,395.813 243.800 C 395.967 242.150,396.253 240.800,396.447 240.800 C 396.641 240.800,396.800 239.990,396.800 239.000 C 396.800 238.010,396.980 237.200,397.200 237.200 C 397.420 237.200,397.600 236.390,397.600 235.400 C 397.600 234.410,397.758 233.600,397.952 233.600 C 398.146 233.600,398.435 231.485,398.596 228.900 C 398.769 226.122,399.075 224.083,399.344 223.915 C 399.677 223.706,399.800 217.251,399.800 200.000 C 399.800 182.749,399.677 176.294,399.344 176.085 C 399.075 175.917,398.769 173.878,398.596 171.100 C 398.435 168.515,398.146 166.400,397.952 166.400 C 397.758 166.400,397.600 165.590,397.600 164.600 C 397.600 163.610,397.420 162.800,397.200 162.800 C 396.980 162.800,396.800 161.990,396.800 161.000 C 396.800 160.010,396.641 159.200,396.447 159.200 C 396.253 159.200,395.967 157.850,395.813 156.200 C 395.658 154.550,395.367 153.200,395.166 153.200 C 394.965 153.200,394.800 152.570,394.800 151.800 C 394.800 151.030,394.641 150.400,394.447 150.400 C 394.252 150.400,393.968 149.232,393.815 147.804 C 393.662 146.377,393.371 145.106,393.169 144.981 C 392.966 144.855,392.800 144.313,392.800 143.776 C 392.800 143.239,392.620 142.800,392.400 142.800 C 392.180 142.800,392.000 142.170,392.000 141.400 C 392.000 140.630,391.837 140.000,391.638 140.000 C 391.438 140.000,391.151 139.100,391.000 138.000 C 390.849 136.901,390.562 135.900,390.363 135.777 C 390.163 135.654,390.000 135.113,390.000 134.576 C 390.000 134.039,389.820 133.600,389.600 133.600 C 389.380 133.600,389.200 133.150,389.200 132.600 C 389.200 132.050,389.034 131.600,388.832 131.600 C 388.629 131.600,388.349 131.015,388.208 130.300 C 388.068 129.585,387.799 128.640,387.610 128.200 C 387.421 127.760,387.028 126.815,386.736 126.100 C 386.444 125.385,386.080 124.800,385.927 124.800 C 385.774 124.800,385.528 123.990,385.379 123.000 C 385.231 122.010,384.983 121.200,384.829 121.200 C 384.675 121.200,384.302 120.570,384.000 119.800 C 383.698 119.030,383.325 118.400,383.171 118.400 C 383.017 118.400,382.769 117.590,382.621 116.600 C 382.472 115.610,382.182 114.800,381.975 114.800 C 381.769 114.800,381.600 114.530,381.600 114.200 C 381.600 113.870,381.440 113.600,381.245 113.600 C 381.049 113.600,380.771 112.970,380.626 112.200 C 380.482 111.430,380.226 110.800,380.057 110.800 C 379.888 110.800,379.502 110.170,379.200 109.400 C 378.898 108.630,378.512 108.000,378.343 108.000 C 378.174 108.000,377.918 107.370,377.774 106.600 C 377.629 105.830,377.351 105.200,377.155 105.200 C 376.960 105.200,376.800 104.930,376.800 104.600 C 376.800 104.270,376.620 104.000,376.400 104.000 C 376.180 104.000,376.000 103.640,376.000 103.200 C 376.000 102.760,375.823 102.400,375.608 102.400 C 375.392 102.400,375.102 101.950,374.964 101.400 C 374.826 100.850,374.553 100.400,374.357 100.400 C 374.160 100.400,374.000 100.040,374.000 99.600 C 374.000 99.160,373.820 98.800,373.600 98.800 C 373.380 98.800,373.200 98.530,373.200 98.200 C 373.200 97.870,373.023 97.600,372.808 97.600 C 372.592 97.600,372.302 97.150,372.164 96.600 C 372.026 96.050,371.753 95.600,371.557 95.600 C 371.360 95.600,371.200 95.340,371.200 95.023 C 371.200 94.705,370.869 94.210,370.465 93.923 C 370.060 93.635,369.607 92.905,369.457 92.300 C 369.307 91.695,369.008 91.200,368.792 91.200 C 368.577 91.200,368.400 90.930,368.400 90.600 C 368.400 90.270,368.232 90.000,368.027 90.000 C 367.822 90.000,367.526 89.595,367.370 89.100 C 367.213 88.605,366.751 87.909,366.343 87.553 C 365.934 87.197,365.600 86.632,365.600 86.296 C 365.600 85.960,365.330 85.582,365.000 85.455 C 364.670 85.329,364.400 84.965,364.400 84.648 C 364.400 84.331,363.860 83.617,363.200 83.061 C 362.540 82.506,362.000 81.795,362.000 81.482 C 362.000 81.168,361.550 80.574,361.000 80.161 C 360.450 79.748,360.000 79.174,360.000 78.886 C 360.000 78.598,359.550 77.945,359.000 77.435 C 358.450 76.925,358.000 76.226,358.000 75.881 C 358.000 75.536,357.649 75.143,357.220 75.006 C 356.792 74.870,356.330 74.408,356.194 73.980 C 356.057 73.551,355.778 73.200,355.573 73.200 C 355.368 73.200,355.197 72.975,355.193 72.700 C 355.190 72.425,354.380 71.421,353.393 70.468 C 352.407 69.515,351.600 68.565,351.600 68.356 C 351.600 67.846,332.174 48.400,331.664 48.400 C 331.444 48.400,330.485 47.593,329.532 46.607 C 328.579 45.620,327.575 44.810,327.300 44.807 C 327.025 44.803,326.800 44.632,326.800 44.427 C 326.800 44.222,326.449 43.943,326.020 43.806 C 325.592 43.670,325.130 43.208,324.994 42.780 C 324.857 42.351,324.464 42.000,324.119 42.000 C 323.774 42.000,323.075 41.550,322.565 41.000 C 322.055 40.450,321.402 40.000,321.114 40.000 C 320.826 40.000,320.252 39.550,319.839 39.000 C 319.426 38.450,318.832 38.000,318.518 38.000 C 318.205 38.000,317.494 37.460,316.939 36.800 C 316.383 36.140,315.669 35.600,315.352 35.600 C 315.035 35.600,314.671 35.330,314.545 35.000 C 314.418 34.670,313.974 34.400,313.557 34.400 C 313.141 34.400,312.800 34.248,312.800 34.063 C 312.800 33.878,312.170 33.387,311.400 32.972 C 310.630 32.557,310.000 32.079,310.000 31.909 C 310.000 31.739,309.730 31.600,309.400 31.600 C 309.070 31.600,308.800 31.423,308.800 31.208 C 308.800 30.992,308.305 30.693,307.700 30.544 C 307.095 30.394,306.309 29.941,305.953 29.536 C 305.597 29.131,305.102 28.800,304.853 28.800 C 304.604 28.800,304.400 28.640,304.400 28.443 C 304.400 28.247,303.950 27.974,303.400 27.836 C 302.850 27.698,302.400 27.408,302.400 27.192 C 302.400 26.977,302.130 26.800,301.800 26.800 C 301.470 26.800,301.200 26.620,301.200 26.400 C 301.200 26.180,300.840 26.000,300.400 26.000 C 299.960 26.000,299.600 25.840,299.600 25.643 C 299.600 25.447,299.150 25.174,298.600 25.036 C 298.050 24.898,297.600 24.608,297.600 24.392 C 297.600 24.177,297.240 24.000,296.800 24.000 C 296.360 24.000,296.000 23.820,296.000 23.600 C 296.000 23.380,295.730 23.200,295.400 23.200 C 295.070 23.200,294.800 23.034,294.800 22.832 C 294.800 22.629,294.215 22.337,293.500 22.182 C 292.785 22.026,292.110 21.787,292.000 21.650 C 291.614 21.168,287.600 19.200,287.003 19.200 C 286.671 19.200,286.400 19.020,286.400 18.800 C 286.400 18.580,286.130 18.400,285.800 18.400 C 285.470 18.400,285.200 18.231,285.200 18.025 C 285.200 17.818,284.390 17.528,283.400 17.379 C 282.410 17.231,281.600 16.950,281.600 16.755 C 281.600 16.560,281.330 16.400,281.000 16.400 C 280.670 16.400,280.400 16.220,280.400 16.000 C 280.400 15.780,280.040 15.600,279.600 15.600 C 279.160 15.600,278.800 15.440,278.800 15.245 C 278.800 15.050,277.990 14.769,277.000 14.621 C 276.010 14.472,275.200 14.226,275.200 14.073 C 275.200 13.920,274.615 13.556,273.900 13.264 C 273.185 12.972,272.240 12.579,271.800 12.390 C 271.360 12.201,270.415 11.932,269.700 11.792 C 268.985 11.651,268.400 11.371,268.400 11.168 C 268.400 10.966,267.950 10.800,267.400 10.800 C 266.850 10.800,266.400 10.620,266.400 10.400 C 266.400 10.180,265.961 10.000,265.424 10.000 C 264.887 10.000,264.346 9.837,264.223 9.637 C 264.100 9.438,263.099 9.151,262.000 9.000 C 260.900 8.849,260.000 8.562,260.000 8.362 C 260.000 8.163,259.385 8.000,258.633 8.000 C 257.882 8.000,257.207 7.865,257.133 7.700 C 256.970 7.333,251.748 5.992,250.500 5.997 C 250.005 5.998,249.600 5.820,249.600 5.600 C 249.600 5.380,248.970 5.200,248.200 5.200 C 247.430 5.200,246.800 5.035,246.800 4.834 C 246.800 4.633,245.450 4.342,243.800 4.187 C 242.150 4.033,240.800 3.747,240.800 3.553 C 240.800 3.359,239.990 3.200,239.000 3.200 C 238.010 3.200,237.200 3.020,237.200 2.800 C 237.200 2.580,236.390 2.400,235.400 2.400 C 234.410 2.400,233.600 2.242,233.600 2.048 C 233.600 1.854,231.485 1.565,228.900 1.404 C 226.257 1.240,224.080 0.921,223.926 0.675 C 223.654 0.241,188.097 -0.082,179.700 0.273 M225.562 73.852 C 227.081 74.156,229.419 76.394,230.219 78.308 C 230.936 80.023,231.115 298.958,230.400 299.400 C 230.180 299.536,230.000 299.961,230.000 300.345 C 230.000 301.066,228.078 303.021,226.505 303.900 C 225.828 304.279,221.385 304.400,208.200 304.400 C 195.013 304.400,190.573 304.279,189.898 303.900 C 188.464 303.095,186.000 300.548,186.000 299.871 C 186.000 299.528,185.820 299.136,185.600 299.000 C 185.380 298.864,185.200 298.055,185.200 297.202 C 185.200 296.350,185.035 295.218,184.834 294.688 C 184.632 294.159,184.334 290.142,184.170 285.762 C 184.007 281.383,183.796 278.070,183.701 278.400 C 183.485 279.150,181.702 283.126,181.101 284.200 C 180.854 284.640,180.417 285.466,180.129 286.035 C 179.841 286.605,179.245 287.398,178.803 287.797 C 178.361 288.197,178.000 288.700,178.000 288.915 C 178.000 290.335,167.430 299.653,164.700 300.640 C 164.315 300.779,164.000 301.008,164.000 301.149 C 164.000 301.290,163.415 301.651,162.700 301.952 C 161.985 302.253,160.877 302.747,160.239 303.050 C 159.600 303.352,158.781 303.600,158.419 303.600 C 158.056 303.600,157.589 303.749,157.380 303.930 C 155.449 305.609,138.447 307.953,136.230 306.846 C 135.774 306.618,134.230 306.352,132.800 306.256 C 128.450 305.964,124.429 304.999,120.400 303.281 C 117.638 302.103,116.181 301.421,116.000 301.221 C 115.890 301.099,115.133 300.661,114.319 300.247 C 113.504 299.833,112.514 299.197,112.119 298.833 C 111.723 298.469,110.950 297.863,110.400 297.486 C 108.463 296.156,102.719 290.187,100.894 287.609 C 99.879 286.174,98.947 284.910,98.824 284.800 C 98.433 284.451,96.844 281.514,95.147 278.000 C 94.243 276.130,93.173 273.922,92.769 273.094 C 92.365 272.266,91.916 270.961,91.772 270.194 C 91.629 269.427,91.351 268.800,91.155 268.800 C 90.960 268.800,90.800 268.296,90.800 267.680 C 90.800 267.064,90.634 266.389,90.431 266.180 C 90.228 265.971,89.876 264.900,89.649 263.800 C 89.423 262.700,89.039 260.990,88.797 260.000 C 87.477 254.607,86.791 250.962,86.743 249.094 C 86.723 248.266,86.547 247.491,86.353 247.371 C 86.159 247.251,86.000 246.004,86.000 244.600 C 86.000 243.196,85.843 241.950,85.652 241.832 C 84.649 241.212,84.260 210.544,85.145 201.800 C 85.412 199.160,85.730 195.740,85.851 194.200 C 85.972 192.660,86.214 191.220,86.388 191.000 C 86.562 190.780,86.832 189.026,86.988 187.101 C 87.144 185.177,87.435 183.502,87.636 183.378 C 87.836 183.254,88.000 182.454,88.000 181.600 C 88.000 180.746,88.161 179.948,88.358 179.826 C 88.555 179.705,88.810 178.929,88.926 178.103 C 89.318 175.299,90.060 172.202,90.431 171.820 C 90.634 171.611,90.800 171.037,90.800 170.544 C 90.800 170.051,90.980 169.536,91.200 169.400 C 91.420 169.264,91.600 168.876,91.600 168.537 C 91.600 167.960,92.403 165.880,93.234 164.305 C 93.435 163.923,93.600 163.338,93.600 163.005 C 93.600 162.672,93.780 162.400,94.000 162.400 C 94.220 162.400,94.400 162.202,94.400 161.960 C 94.400 161.445,95.644 158.692,96.008 158.400 C 96.146 158.290,96.374 157.930,96.516 157.600 C 96.840 156.848,98.741 153.694,99.797 152.159 C 101.701 149.391,109.383 141.600,110.208 141.600 C 110.466 141.600,110.993 141.250,111.379 140.823 C 111.766 140.395,112.604 139.931,113.241 139.791 C 113.879 139.651,114.400 139.401,114.400 139.235 C 114.400 138.947,118.113 136.992,119.800 136.392 C 120.240 136.235,121.050 135.923,121.600 135.699 C 129.259 132.575,153.257 132.563,156.980 135.682 C 157.189 135.857,157.774 136.000,158.280 136.000 C 158.786 136.000,159.200 136.180,159.200 136.400 C 159.200 136.620,159.398 136.800,159.640 136.800 C 160.683 136.800,167.228 140.504,167.533 141.267 C 167.607 141.450,167.884 141.600,168.149 141.600 C 168.684 141.600,176.274 149.075,176.931 150.248 C 177.159 150.657,177.671 151.339,178.069 151.766 C 178.466 152.192,178.895 152.869,179.022 153.271 C 179.150 153.672,179.388 154.000,179.552 154.000 C 179.716 154.000,180.098 154.630,180.400 155.400 C 180.702 156.170,181.096 156.800,181.275 156.800 C 181.454 156.800,181.600 157.149,181.600 157.576 C 181.600 158.003,181.780 158.464,182.000 158.600 C 182.266 158.764,182.400 145.204,182.400 118.224 C 182.400 91.408,182.536 77.600,182.800 77.600 C 183.020 77.600,183.200 77.364,183.200 77.075 C 183.200 76.294,185.317 74.412,186.642 74.015 C 187.968 73.619,223.646 73.469,225.562 73.852 M324.527 137.795 C 327.993 139.244,329.044 143.294,326.936 147.086 C 326.351 148.139,325.676 149.360,325.436 149.800 C 325.196 150.240,324.908 150.690,324.796 150.800 C 324.420 151.169,322.370 154.425,321.319 156.322 C 320.747 157.355,320.171 158.290,320.039 158.400 C 319.908 158.510,319.607 158.960,319.371 159.400 C 317.923 162.097,317.346 163.078,316.840 163.703 C 316.105 164.610,315.280 166.013,314.960 166.900 C 314.821 167.285,314.548 167.600,314.353 167.600 C 314.159 167.600,314.000 167.782,314.000 168.004 C 314.000 168.227,313.100 169.845,312.000 171.600 C 310.900 173.355,310.000 174.880,310.000 174.988 C 310.000 175.228,307.163 179.720,306.834 180.000 C 306.522 180.266,305.766 181.517,304.991 183.046 C 304.644 183.731,304.016 184.661,303.596 185.112 C 303.176 185.563,302.720 186.379,302.583 186.926 C 302.445 187.473,302.033 188.254,301.667 188.660 C 301.300 189.067,300.644 190.075,300.209 190.900 C 299.774 191.725,299.279 192.400,299.109 192.400 C 298.939 192.400,298.800 192.590,298.800 192.822 C 298.800 193.054,297.900 194.647,296.800 196.362 C 295.700 198.077,294.800 199.582,294.800 199.707 C 294.800 199.832,293.333 202.244,291.539 205.067 C 289.745 207.890,287.828 211.010,287.278 212.000 C 286.729 212.990,286.171 213.890,286.039 214.000 C 285.647 214.328,284.800 215.959,284.800 216.387 C 284.800 216.606,285.430 217.769,286.200 218.973 C 286.970 220.177,287.600 221.254,287.600 221.367 C 287.600 221.480,288.590 223.107,289.800 224.982 C 291.010 226.858,292.000 228.493,292.000 228.616 C 292.000 228.738,292.626 229.817,293.391 231.012 C 294.156 232.208,294.895 233.639,295.034 234.193 C 295.173 234.747,295.419 235.200,295.580 235.200 C 295.741 235.200,296.384 236.145,297.008 237.300 C 297.632 238.455,298.741 240.275,299.471 241.345 C 300.202 242.415,300.800 243.540,300.800 243.845 C 300.800 244.150,300.937 244.400,301.105 244.400 C 301.410 244.400,301.519 244.578,302.979 247.461 C 303.408 248.308,303.858 249.090,303.979 249.200 C 304.101 249.310,304.393 249.760,304.629 250.200 C 305.712 252.216,306.627 253.811,306.918 254.188 C 307.093 254.415,308.596 256.940,310.258 259.800 C 311.920 262.660,313.622 265.488,314.040 266.084 C 314.458 266.680,314.800 267.268,314.800 267.392 C 314.800 267.515,315.264 268.350,315.830 269.248 C 316.732 270.676,317.860 272.640,319.364 275.400 C 319.604 275.840,319.890 276.290,320.000 276.400 C 320.376 276.776,322.051 279.798,322.272 280.500 C 322.394 280.885,322.652 281.200,322.847 281.200 C 323.041 281.200,323.200 281.389,323.200 281.619 C 323.200 281.850,323.800 282.976,324.533 284.122 C 325.891 286.246,327.366 288.784,329.102 291.989 C 329.636 292.972,330.416 294.260,330.836 294.850 C 332.623 297.361,331.461 302.691,328.859 303.919 C 327.702 304.466,284.800 304.636,284.800 304.095 C 284.800 303.927,284.395 303.612,283.900 303.395 C 283.405 303.178,282.550 302.100,282.000 301.000 C 281.450 299.900,280.910 298.910,280.800 298.800 C 280.690 298.690,280.407 298.240,280.171 297.800 C 278.967 295.557,278.180 294.180,278.000 294.000 C 277.890 293.890,277.604 293.440,277.363 293.000 C 276.543 291.497,274.271 287.402,273.478 286.000 C 273.043 285.230,272.262 283.845,271.743 282.923 C 271.225 282.001,270.800 281.048,270.800 280.806 C 270.800 280.564,270.449 279.990,270.020 279.529 C 269.591 279.069,268.956 278.131,268.609 277.446 C 268.262 276.761,267.802 275.930,267.587 275.600 C 267.110 274.868,262.833 267.058,262.000 265.396 C 261.670 264.738,261.175 263.962,260.900 263.671 C 260.625 263.381,260.400 262.886,260.400 262.571 C 260.400 262.257,260.262 262.000,260.094 262.000 C 259.926 262.000,259.469 261.325,259.079 260.500 C 258.243 258.734,256.685 255.885,256.400 255.600 C 256.168 255.368,255.856 254.814,253.559 250.551 C 252.625 248.818,251.756 247.310,251.627 247.200 C 251.498 247.090,251.034 246.280,250.596 245.400 C 250.158 244.520,249.330 243.080,248.755 242.200 C 248.180 241.320,247.571 240.150,247.401 239.600 C 247.231 239.050,246.972 238.510,246.825 238.400 C 246.678 238.290,246.208 237.508,245.779 236.661 C 244.319 233.778,244.210 233.600,243.905 233.600 C 243.737 233.600,243.600 233.240,243.600 232.800 C 243.600 232.360,243.458 232.000,243.284 232.000 C 243.111 232.000,242.437 230.965,241.787 229.700 C 241.136 228.435,240.499 227.310,240.371 227.200 C 240.117 226.983,239.418 225.669,237.342 221.513 C 235.273 217.369,235.725 212.275,238.400 209.600 C 238.510 209.490,238.793 209.040,239.029 208.600 C 240.394 206.058,241.054 204.956,241.500 204.479 C 241.775 204.184,242.000 203.810,242.000 203.647 C 242.000 203.484,242.315 202.993,242.700 202.555 C 243.085 202.117,243.593 201.408,243.829 200.980 C 244.066 200.551,244.606 199.570,245.029 198.800 C 245.453 198.030,245.908 197.310,246.039 197.200 C 246.171 197.090,246.728 196.190,247.278 195.200 C 247.827 194.210,248.935 192.374,249.739 191.119 C 250.542 189.865,251.200 188.650,251.200 188.419 C 251.200 188.189,251.339 188.000,251.509 188.000 C 251.679 188.000,252.172 187.325,252.604 186.500 C 253.036 185.675,253.706 184.709,254.094 184.353 C 254.483 183.997,254.800 183.517,254.800 183.285 C 254.800 182.683,256.143 180.406,256.500 180.403 C 256.665 180.401,256.800 180.210,256.800 179.978 C 256.800 179.746,258.060 177.571,259.600 175.144 C 261.140 172.718,262.400 170.583,262.400 170.400 C 262.400 170.217,262.553 170.007,262.739 169.933 C 262.926 169.860,263.577 168.900,264.186 167.800 C 264.795 166.700,266.185 164.360,267.275 162.600 C 268.365 160.840,269.469 159.048,269.728 158.617 C 269.988 158.186,270.425 157.588,270.700 157.288 C 270.975 156.988,271.200 156.486,271.200 156.171 C 271.200 155.857,271.380 155.600,271.600 155.600 C 271.820 155.600,272.000 155.421,272.000 155.203 C 272.000 154.985,273.080 153.122,274.400 151.064 C 275.720 149.006,276.800 147.114,276.800 146.861 C 276.800 146.607,276.959 146.400,277.153 146.400 C 277.348 146.400,277.621 146.085,277.760 145.700 C 277.899 145.315,278.237 144.640,278.511 144.200 C 279.485 142.637,280.585 140.997,280.791 140.800 C 280.906 140.690,281.197 140.240,281.438 139.800 C 282.836 137.250,283.150 137.214,304.051 137.207 C 320.026 137.201,323.332 137.296,324.527 137.795 M154.200 168.717 C 152.880 168.787,151.629 169.014,151.420 169.222 C 151.211 169.430,150.659 169.600,150.193 169.600 C 149.265 169.600,145.073 171.629,144.006 172.594 C 143.638 172.928,143.169 173.200,142.965 173.200 C 142.610 173.200,141.556 174.351,139.483 177.000 C 138.203 178.636,135.600 183.886,135.600 184.832 C 135.600 185.254,135.441 185.600,135.246 185.600 C 135.051 185.600,134.769 186.587,134.618 187.794 C 134.467 189.000,134.177 190.091,133.972 190.217 C 133.767 190.344,133.600 191.056,133.600 191.800 C 133.600 192.544,133.420 193.264,133.200 193.400 C 132.980 193.536,132.800 194.330,132.800 195.164 C 132.800 195.998,132.625 197.202,132.411 197.840 C 132.070 198.856,131.743 203.119,130.911 217.400 C 130.716 220.746,130.948 224.609,131.979 235.200 C 132.509 240.645,132.772 242.420,133.195 243.400 C 133.384 243.840,133.633 244.650,133.746 245.200 C 134.385 248.299,134.926 250.244,135.242 250.580 C 135.439 250.789,135.600 251.236,135.600 251.574 C 135.600 252.148,137.545 256.361,138.013 256.800 C 138.130 256.910,138.881 257.905,139.682 259.011 C 141.177 261.077,144.809 264.400,145.572 264.400 C 145.807 264.400,146.000 264.543,146.000 264.717 C 146.000 264.892,147.035 265.361,148.300 265.760 C 149.565 266.159,151.013 266.646,151.519 266.842 C 152.789 267.337,162.291 267.300,162.600 266.800 C 162.736 266.580,163.255 266.400,163.752 266.400 C 164.982 266.400,168.374 265.236,169.600 264.393 C 170.150 264.014,171.011 263.577,171.513 263.421 C 172.015 263.266,172.837 262.747,173.339 262.269 C 173.841 261.791,175.050 260.668,176.026 259.774 C 178.648 257.372,180.550 254.837,182.579 251.039 C 183.329 249.636,183.544 189.600,182.800 189.600 C 182.580 189.600,182.400 189.268,182.400 188.861 C 182.400 188.173,181.709 186.425,180.728 184.632 C 180.497 184.209,179.856 183.039,179.303 182.032 C 177.312 178.401,171.832 172.400,170.508 172.400 C 170.229 172.400,170.000 172.220,170.000 172.000 C 170.000 171.780,169.802 171.600,169.560 171.600 C 169.131 171.600,166.893 170.698,165.505 169.966 C 165.123 169.765,164.484 169.600,164.085 169.600 C 163.686 169.600,163.189 169.443,162.980 169.250 C 162.531 168.837,157.600 168.537,154.200 168.717 " stroke="none" fill="#040404" fill-rule="evenodd"></path><path id="path2" d="M206.880 73.982 C 221.690 74.148,226.481 74.320,226.860 74.700 C 227.135 74.975,227.544 75.200,227.769 75.200 C 227.994 75.200,227.733 74.885,227.189 74.500 C 226.281 73.857,224.615 73.798,206.800 73.782 L 187.400 73.763 206.880 73.982 M184.676 75.300 C 183.954 76.015,183.821 76.205,184.381 75.723 C 184.942 75.241,185.850 74.667,186.400 74.448 C 187.108 74.167,187.194 74.043,186.694 74.025 C 186.306 74.011,185.398 74.585,184.676 75.300 M182.592 115.200 C 182.592 135.990,182.641 144.495,182.700 134.100 C 182.759 123.705,182.759 106.695,182.700 96.300 C 182.641 85.905,182.592 94.410,182.592 115.200 M230.200 189.000 C 230.200 249.788,230.335 299.440,230.500 299.338 C 230.888 299.098,230.882 79.548,230.494 78.938 C 230.332 78.684,230.200 128.212,230.200 189.000 M130.800 133.600 C 130.036 134.094,130.858 134.094,132.400 133.600 L 133.400 133.280 132.400 133.246 C 131.850 133.227,131.130 133.387,130.800 133.600 M147.233 133.344 C 147.325 133.423,147.940 133.608,148.600 133.756 C 149.476 133.952,149.638 133.915,149.200 133.618 C 148.660 133.253,146.832 132.998,147.233 133.344 M152.200 134.400 C 152.640 134.589,153.360 134.738,153.800 134.732 C 154.443 134.723,154.404 134.657,153.600 134.400 C 152.232 133.962,151.181 133.962,152.200 134.400 M294.272 137.500 C 299.592 137.563,308.412 137.563,313.872 137.500 C 319.333 137.437,314.980 137.385,304.200 137.385 C 293.420 137.385,288.953 137.437,294.272 137.500 M282.122 139.029 L 281.000 140.058 282.300 139.154 C 283.015 138.657,283.600 138.193,283.600 138.125 C 283.600 137.809,283.158 138.080,282.122 139.029 M107.357 143.799 C 106.013 144.997,104.420 146.657,103.816 147.488 C 102.921 148.723,103.038 148.650,104.460 147.091 C 105.417 146.041,107.100 144.384,108.200 143.409 C 109.300 142.434,110.110 141.633,110.000 141.629 C 109.890 141.625,108.700 142.602,107.357 143.799 M279.500 142.614 C 279.115 143.129,278.800 143.720,278.800 143.926 C 278.800 144.133,278.530 144.526,278.200 144.800 C 277.870 145.074,277.600 145.480,277.600 145.703 C 277.600 145.926,277.960 145.650,278.400 145.091 C 278.840 144.531,279.200 143.936,279.200 143.768 C 279.200 143.600,279.499 143.133,279.864 142.729 C 280.230 142.325,280.455 141.924,280.364 141.837 C 280.274 141.750,279.885 142.100,279.500 142.614 M327.580 144.290 C 327.471 145.219,327.533 145.827,327.720 145.640 C 327.906 145.454,327.996 144.694,327.919 143.951 C 327.783 142.633,327.775 142.642,327.580 144.290 M175.999 149.500 C 176.522 150.215,177.013 150.800,177.089 150.800 C 177.393 150.800,176.401 149.300,175.745 148.767 C 175.313 148.416,175.410 148.696,175.999 149.500 M99.021 153.177 C 98.634 153.604,98.412 154.189,98.527 154.477 C 98.689 154.880,98.744 154.869,98.768 154.431 C 98.786 154.119,99.098 153.534,99.462 153.131 C 99.826 152.729,100.034 152.400,99.924 152.400 C 99.814 152.400,99.408 152.750,99.021 153.177 M95.300 159.493 C 94.588 161.011,94.684 161.633,95.413 160.233 C 95.748 159.591,95.972 158.922,95.911 158.746 C 95.850 158.570,95.575 158.906,95.300 159.493 M265.853 164.900 L 265.133 166.200 265.958 165.200 C 266.689 164.313,267.014 163.600,266.686 163.600 C 266.624 163.600,266.249 164.185,265.853 164.900 M165.400 170.000 C 165.536 170.220,165.986 170.400,166.400 170.400 C 166.814 170.400,167.251 170.558,167.370 170.752 C 167.590 171.108,169.200 171.654,169.200 171.373 C 169.200 171.198,165.772 169.600,165.398 169.600 C 165.263 169.600,165.264 169.780,165.400 170.000 M90.046 172.467 C 90.021 172.834,89.896 173.464,89.770 173.867 C 89.552 174.562,89.563 174.563,89.997 173.887 C 90.248 173.496,90.373 172.866,90.273 172.487 C 90.111 171.868,90.088 171.866,90.046 172.467 M309.053 176.100 L 308.333 177.400 309.158 176.400 C 309.889 175.513,310.214 174.800,309.886 174.800 C 309.824 174.800,309.449 175.385,309.053 176.100 M258.953 176.100 C 257.576 178.436,257.486 178.635,258.187 177.800 C 259.000 176.832,259.700 175.600,259.438 175.600 C 259.333 175.600,259.115 175.825,258.953 176.100 M255.494 181.703 L 254.788 183.000 255.594 182.056 C 256.280 181.252,256.646 180.394,256.300 180.403 C 256.245 180.404,255.882 180.989,255.494 181.703 M87.415 183.700 C 87.103 184.674,86.965 187.195,87.239 186.900 C 87.393 186.735,87.586 185.835,87.670 184.900 C 87.820 183.210,87.721 182.743,87.415 183.700 M134.174 188.300 C 134.042 188.905,133.848 189.670,133.743 190.000 C 133.621 190.384,133.686 190.456,133.923 190.200 C 134.322 189.770,134.900 187.200,134.598 187.200 C 134.497 187.200,134.307 187.695,134.174 188.300 M301.481 188.239 C 301.086 188.768,300.908 189.200,301.085 189.200 C 301.434 189.200,302.538 187.601,302.328 187.400 C 302.257 187.333,301.877 187.711,301.481 188.239 M133.152 192.313 C 133.021 193.107,133.079 193.481,133.301 193.259 C 133.503 193.057,133.601 192.467,133.519 191.946 C 133.393 191.145,133.337 191.202,133.152 192.313 M248.214 193.435 C 247.841 194.004,247.605 194.538,247.689 194.622 C 247.773 194.707,248.158 194.241,248.544 193.588 C 249.406 192.128,249.148 192.009,248.214 193.435 M297.353 194.900 C 295.976 197.236,295.886 197.435,296.587 196.600 C 297.400 195.632,298.100 194.400,297.838 194.400 C 297.733 194.400,297.515 194.625,297.353 194.900 M85.449 197.415 C 85.312 197.773,85.232 199.536,85.270 201.333 L 85.340 204.600 85.579 200.800 C 85.836 196.690,85.826 196.433,85.449 197.415 M293.853 200.900 L 293.133 202.200 293.958 201.200 C 294.689 200.313,295.014 199.600,294.686 199.600 C 294.624 199.600,294.249 200.185,293.853 200.900 M131.456 202.884 C 131.321 203.388,131.240 205.600,131.276 207.800 L 131.340 211.800 131.587 207.000 C 131.850 201.864,131.838 201.461,131.456 202.884 M291.753 204.100 C 290.376 206.436,290.286 206.635,290.987 205.800 C 291.800 204.832,292.500 203.600,292.238 203.600 C 292.133 203.600,291.915 203.825,291.753 204.100 M84.579 219.600 C 84.579 226.750,84.633 229.675,84.699 226.100 C 84.766 222.525,84.766 216.675,84.699 213.100 C 84.633 209.525,84.579 212.450,84.579 219.600 M130.550 219.800 C 130.551 222.220,130.616 223.158,130.696 221.885 C 130.776 220.612,130.775 218.632,130.694 217.485 C 130.614 216.338,130.549 217.380,130.550 219.800 M290.590 226.701 C 291.781 229.006,291.994 229.326,291.989 228.800 C 291.985 228.470,291.611 227.750,291.156 227.200 C 290.702 226.650,290.447 226.426,290.590 226.701 M131.344 231.200 C 131.344 233.290,131.412 234.145,131.494 233.100 C 131.576 232.055,131.576 230.345,131.494 229.300 C 131.412 228.255,131.344 229.110,131.344 231.200 M294.025 232.700 C 294.496 233.635,294.936 234.400,295.003 234.400 C 295.324 234.400,294.671 232.891,293.964 232.000 C 293.232 231.078,293.237 231.133,294.025 232.700 M85.264 238.076 C 85.229 239.988,85.335 241.637,85.500 241.739 C 85.665 241.842,85.750 240.818,85.689 239.463 C 85.489 235.052,85.329 234.530,85.264 238.076 M247.459 239.900 C 247.560 240.285,248.000 241.050,248.436 241.600 C 249.168 242.522,249.163 242.467,248.375 240.900 C 247.465 239.092,247.159 238.758,247.459 239.900 M299.639 242.176 C 300.101 242.959,300.556 243.600,300.650 243.600 C 300.934 243.600,299.636 241.269,299.202 241.001 C 298.980 240.864,299.177 241.393,299.639 242.176 M133.152 244.487 C 133.337 245.598,133.393 245.655,133.519 244.854 C 133.601 244.333,133.503 243.743,133.301 243.541 C 133.079 243.319,133.021 243.693,133.152 244.487 M133.844 247.000 C 134.173 248.471,134.402 248.790,134.394 247.767 C 134.391 247.345,134.205 246.730,133.982 246.400 C 133.685 245.962,133.648 246.124,133.844 247.000 M87.082 252.421 C 87.208 253.399,87.375 254.275,87.455 254.367 C 87.781 254.742,87.560 251.755,87.221 251.221 C 86.984 250.846,86.935 251.270,87.082 252.421 M254.990 253.101 C 256.181 255.406,256.394 255.726,256.389 255.200 C 256.385 254.870,256.011 254.150,255.556 253.600 C 255.102 253.050,254.847 252.826,254.990 253.101 M138.000 257.048 C 138.000 257.258,138.553 258.053,139.229 258.815 L 140.458 260.200 139.345 258.600 C 138.733 257.720,138.180 256.925,138.116 256.833 C 138.052 256.742,138.000 256.838,138.000 257.048 M141.000 261.160 C 141.877 262.177,144.800 264.579,144.800 264.282 C 144.800 264.180,143.765 263.228,142.500 262.165 C 141.235 261.102,140.560 260.650,141.000 261.160 M89.795 264.400 C 89.954 265.170,90.239 265.965,90.428 266.166 C 90.617 266.367,90.579 265.827,90.344 264.966 C 89.796 262.959,89.418 262.569,89.795 264.400 M164.200 266.291 C 163.540 266.385,162.851 266.606,162.668 266.783 C 162.485 266.960,163.077 266.969,163.984 266.803 C 165.327 266.557,167.007 265.857,165.767 266.060 C 165.565 266.093,164.860 266.197,164.200 266.291 M155.500 267.493 C 156.435 267.577,157.965 267.577,158.900 267.493 C 159.835 267.409,159.070 267.340,157.200 267.340 C 155.330 267.340,154.565 267.409,155.500 267.493 M91.847 270.679 C 92.237 271.858,93.226 274.000,93.381 274.000 C 93.656 274.000,93.101 272.386,92.752 272.170 C 92.558 272.051,92.400 271.614,92.400 271.200 C 92.400 270.786,92.222 270.337,92.005 270.203 C 91.772 270.059,91.707 270.255,91.847 270.679 M316.360 270.600 C 317.034 271.905,317.588 272.628,317.585 272.200 C 317.583 271.980,317.214 271.350,316.764 270.800 C 316.221 270.136,316.085 270.069,316.360 270.600 M268.415 276.800 C 268.421 277.130,268.690 277.749,269.013 278.176 C 269.768 279.175,269.763 278.805,269.002 277.346 C 268.674 276.716,268.410 276.470,268.415 276.800 M320.011 276.800 C 320.015 277.130,320.389 277.850,320.844 278.400 C 321.298 278.950,321.553 279.174,321.410 278.899 C 320.219 276.594,320.006 276.274,320.011 276.800 M183.387 278.200 C 183.284 278.530,183.112 279.079,183.005 279.421 C 182.897 279.762,182.966 279.945,183.157 279.827 C 183.348 279.709,183.591 279.159,183.697 278.606 C 183.906 277.513,183.690 277.230,183.387 278.200 M271.787 283.000 C 272.385 284.100,273.059 285.180,273.286 285.400 C 273.513 285.620,273.210 284.900,272.613 283.800 C 272.015 282.700,271.341 281.620,271.114 281.400 C 270.887 281.180,271.190 281.900,271.787 283.000 M322.811 281.600 C 322.815 281.930,323.189 282.650,323.644 283.200 C 324.098 283.750,324.353 283.974,324.210 283.699 C 323.019 281.394,322.806 281.074,322.811 281.600 M97.390 282.301 C 98.581 284.606,98.794 284.926,98.789 284.400 C 98.785 284.070,98.411 283.350,97.956 282.800 C 97.502 282.250,97.247 282.026,97.390 282.301 M180.825 284.100 C 180.037 285.667,180.032 285.722,180.764 284.800 C 181.471 283.909,182.124 282.400,181.803 282.400 C 181.736 282.400,181.296 283.165,180.825 284.100 M184.299 289.200 C 184.388 291.510,184.523 293.580,184.599 293.800 C 184.877 294.608,184.711 286.967,184.429 286.000 C 184.268 285.450,184.210 286.890,184.299 289.200 M172.800 294.110 C 170.490 296.356,169.140 297.802,169.800 297.326 C 171.012 296.449,177.543 289.988,177.191 290.014 C 177.086 290.021,175.110 291.865,172.800 294.110 M331.135 298.082 C 331.215 299.752,331.093 301.067,330.835 301.325 C 330.596 301.564,330.400 301.938,330.400 302.156 C 330.400 302.375,330.664 302.204,330.987 301.776 C 331.606 300.959,331.861 295.809,331.300 295.460 C 331.135 295.358,331.061 296.538,331.135 298.082 M185.232 297.076 C 185.214 297.998,185.342 298.841,185.516 298.948 C 185.690 299.056,185.767 298.482,185.687 297.672 C 185.469 295.458,185.267 295.195,185.232 297.076 M113.000 299.407 C 113.440 299.766,114.160 300.235,114.600 300.451 L 115.400 300.844 114.600 300.193 C 114.160 299.834,113.440 299.365,113.000 299.149 L 112.200 298.756 113.000 299.407 M281.966 301.027 C 282.393 301.921,283.047 302.907,283.419 303.216 C 284.043 303.733,283.718 303.155,281.696 300.150 C 281.418 299.737,281.540 300.132,281.966 301.027 M116.800 301.724 C 118.128 302.413,119.200 302.812,119.200 302.617 C 119.200 302.376,116.737 301.200,116.239 301.202 C 115.997 301.204,116.250 301.438,116.800 301.724 M162.093 301.780 C 160.847 302.468,160.456 302.906,161.412 302.543 C 162.903 301.975,164.199 301.205,163.600 301.242 C 163.270 301.262,162.592 301.504,162.093 301.780 M190.262 304.100 C 190.504 304.492,225.896 304.492,226.138 304.100 C 226.240 303.935,218.168 303.800,208.200 303.800 C 198.232 303.800,190.160 303.935,190.262 304.100 M306.600 304.000 L 284.600 304.210 306.476 304.305 C 320.732 304.367,328.439 304.261,328.600 304.000 C 328.736 303.780,328.792 303.643,328.724 303.695 C 328.656 303.747,318.700 303.884,306.600 304.000 M125.233 304.944 C 125.325 305.023,125.940 305.208,126.600 305.356 C 127.476 305.552,127.638 305.515,127.200 305.218 C 126.660 304.853,124.832 304.598,125.233 304.944 M152.645 305.128 C 152.533 305.308,152.973 305.377,153.621 305.282 C 154.270 305.187,154.800 305.040,154.800 304.955 C 154.800 304.650,152.843 304.807,152.645 305.128 M136.263 306.900 C 136.501 307.287,143.653 307.281,144.263 306.894 C 144.518 306.732,142.780 306.600,140.402 306.600 C 138.024 306.600,136.161 306.735,136.263 306.900 " stroke="none" fill="#555555" fill-rule="evenodd"></path><path id="path3" d="" stroke="none" fill="#746c74" fill-rule="evenodd"></path><path id="path4" d="M196.900 74.300 C 202.125 74.363,210.675 74.363,215.900 74.300 C 221.125 74.236,216.850 74.185,206.400 74.185 C 195.950 74.185,191.675 74.236,196.900 74.300 M229.909 84.711 C 230.070 94.582,230.254 95.657,230.302 87.000 C 230.325 82.820,230.221 79.090,230.072 78.711 C 229.922 78.333,229.849 81.033,229.909 84.711 M230.178 109.000 C 230.179 116.040,230.233 118.864,230.299 115.275 C 230.366 111.686,230.366 105.926,230.299 102.475 C 230.233 99.024,230.178 101.960,230.178 109.000 M137.717 133.497 C 139.211 133.574,141.551 133.574,142.917 133.496 C 144.282 133.418,143.060 133.355,140.200 133.355 C 137.340 133.356,136.222 133.420,137.717 133.497 M129.105 134.283 C 129.602 134.379,130.322 134.375,130.705 134.275 C 131.087 134.175,130.680 134.096,129.800 134.101 C 128.920 134.105,128.607 134.187,129.105 134.283 M149.300 134.276 C 149.685 134.376,150.315 134.376,150.700 134.276 C 151.085 134.175,150.770 134.093,150.000 134.093 C 149.230 134.093,148.915 134.175,149.300 134.276 M156.606 136.010 C 156.706 136.172,157.235 136.390,157.782 136.494 C 158.329 136.599,158.694 136.552,158.594 136.390 C 158.494 136.228,157.965 136.010,157.418 135.906 C 156.871 135.801,156.506 135.848,156.606 136.010 M290.000 137.886 C 303.425 138.160,324.282 138.172,323.863 137.906 C 323.608 137.744,314.670 137.649,304.000 137.694 C 293.330 137.739,287.030 137.825,290.000 137.886 M114.000 139.433 C 113.442 139.743,113.265 139.985,113.600 139.981 C 113.930 139.978,114.549 139.710,114.976 139.387 C 115.939 138.659,115.345 138.687,114.000 139.433 M326.100 139.431 C 326.485 139.889,326.800 140.463,326.800 140.708 C 326.800 140.953,326.963 141.254,327.163 141.377 C 327.886 141.824,327.098 140.033,326.260 139.326 C 325.408 138.606,325.406 138.607,326.100 139.431 M281.021 140.777 C 280.634 141.204,280.412 141.789,280.527 142.077 C 280.689 142.480,280.744 142.469,280.768 142.031 C 280.786 141.719,281.098 141.134,281.462 140.731 C 281.826 140.329,282.034 140.000,281.924 140.000 C 281.814 140.000,281.408 140.350,281.021 140.777 M105.578 145.900 L 104.200 147.400 105.700 146.022 C 106.525 145.263,107.200 144.588,107.200 144.522 C 107.200 144.216,106.862 144.504,105.578 145.900 M324.153 150.500 C 322.776 152.836,322.686 153.035,323.387 152.200 C 324.200 151.232,324.900 150.000,324.638 150.000 C 324.533 150.000,324.315 150.225,324.153 150.500 M99.675 152.784 C 99.194 153.435,98.800 154.100,98.800 154.262 C 98.800 154.423,99.250 153.945,99.800 153.200 C 100.350 152.455,100.800 151.790,100.800 151.722 C 100.800 151.395,100.475 151.702,99.675 152.784 M267.453 162.900 L 266.733 164.200 267.558 163.200 C 268.289 162.313,268.614 161.600,268.286 161.600 C 268.224 161.600,267.849 162.185,267.453 162.900 M316.246 163.386 C 315.891 163.928,315.600 164.499,315.600 164.654 C 315.600 164.810,315.285 165.308,314.900 165.762 C 314.289 166.481,314.286 166.520,314.874 166.066 C 315.494 165.587,317.377 162.400,317.040 162.400 C 316.958 162.400,316.601 162.844,316.246 163.386 M91.879 167.900 C 91.569 168.453,91.132 170.602,91.380 170.354 C 91.677 170.056,92.405 167.600,92.196 167.600 C 92.114 167.600,91.971 167.735,91.879 167.900 M152.305 168.683 C 152.802 168.779,153.522 168.775,153.905 168.675 C 154.287 168.575,153.880 168.496,153.000 168.501 C 152.120 168.505,151.807 168.587,152.305 168.683 M160.900 168.676 C 161.285 168.776,161.915 168.776,162.300 168.676 C 162.685 168.575,162.370 168.493,161.600 168.493 C 160.830 168.493,160.515 168.575,160.900 168.676 M144.122 171.829 L 143.000 172.858 144.300 171.954 C 145.015 171.457,145.600 170.993,145.600 170.925 C 145.600 170.609,145.158 170.880,144.122 171.829 M89.654 175.467 C 89.625 175.944,89.496 176.664,89.370 177.067 C 89.152 177.761,89.164 177.762,89.596 177.088 C 89.847 176.697,89.975 175.977,89.881 175.488 C 89.709 174.601,89.709 174.601,89.654 175.467 M88.854 178.667 C 88.825 179.144,88.696 179.864,88.570 180.267 C 88.352 180.961,88.364 180.962,88.796 180.288 C 89.047 179.897,89.175 179.177,89.081 178.688 C 88.909 177.801,88.909 177.801,88.854 178.667 M254.832 183.169 C 254.814 183.481,254.492 184.111,254.115 184.569 C 253.469 185.353,253.483 185.351,254.362 184.542 C 254.875 184.070,255.197 183.440,255.079 183.142 C 254.904 182.703,254.857 182.708,254.832 183.169 M87.049 187.415 C 86.912 187.773,86.825 188.816,86.856 189.733 C 86.909 191.301,86.929 191.270,87.192 189.200 C 87.490 186.855,87.451 186.368,87.049 187.415 M183.390 220.200 C 183.390 237.140,183.440 244.012,183.500 235.470 C 183.560 226.929,183.560 213.069,183.500 204.670 C 183.440 196.272,183.390 203.260,183.390 220.200 M250.153 190.900 C 248.776 193.236,248.686 193.435,249.387 192.600 C 250.200 191.632,250.900 190.400,250.638 190.400 C 250.533 190.400,250.315 190.625,250.153 190.900 M132.649 193.015 C 132.512 193.373,132.418 194.056,132.441 194.533 C 132.467 195.081,132.603 194.886,132.810 194.003 C 133.160 192.516,133.065 191.933,132.649 193.015 M86.076 194.867 C 86.034 196.114,85.896 197.464,85.770 197.867 C 85.555 198.552,85.569 198.554,85.990 197.900 C 86.241 197.509,86.376 196.182,86.296 194.900 L 86.151 192.600 86.076 194.867 M295.414 197.435 C 295.041 198.004,294.805 198.538,294.889 198.622 C 294.973 198.707,295.358 198.241,295.744 197.588 C 296.606 196.128,296.348 196.009,295.414 197.435 M131.714 199.800 C 131.717 200.900,131.795 201.303,131.887 200.695 C 131.979 200.086,131.977 199.186,131.882 198.695 C 131.787 198.203,131.711 198.700,131.714 199.800 M84.982 206.582 C 84.829 207.602,84.794 208.527,84.904 208.637 C 85.014 208.747,85.229 208.002,85.382 206.982 C 85.535 205.961,85.570 205.037,85.460 204.927 C 85.350 204.817,85.135 205.561,84.982 206.582 M130.672 211.004 C 130.527 211.882,130.429 213.140,130.453 213.800 C 130.478 214.460,130.655 213.920,130.848 212.600 C 131.240 209.915,131.085 208.507,130.672 211.004 M236.120 216.400 C 236.120 217.610,236.195 218.105,236.287 217.500 C 236.378 216.895,236.378 215.905,236.287 215.300 C 236.195 214.695,236.120 215.190,236.120 216.400 M130.447 225.633 C 130.473 226.385,130.641 227.540,130.820 228.200 C 131.035 228.989,131.070 228.578,130.923 227.000 C 130.677 224.355,130.373 223.481,130.447 225.633 M84.840 231.233 C 84.862 231.985,85.030 233.050,85.213 233.600 C 85.429 234.246,85.466 233.820,85.319 232.400 C 85.059 229.883,84.781 229.207,84.840 231.233 M131.476 237.046 C 131.740 239.755,131.932 240.133,131.962 238.000 C 131.976 237.010,131.830 235.951,131.637 235.646 C 131.421 235.305,131.359 235.842,131.476 237.046 M132.493 242.400 C 132.493 243.170,132.575 243.485,132.676 243.100 C 132.776 242.715,132.776 242.085,132.676 241.700 C 132.575 241.315,132.493 241.630,132.493 242.400 M86.124 243.800 C 86.126 245.120,86.201 245.612,86.290 244.893 C 86.379 244.174,86.377 243.094,86.286 242.493 C 86.195 241.892,86.122 242.480,86.124 243.800 M248.990 241.901 C 250.181 244.206,250.394 244.526,250.389 244.000 C 250.385 243.670,250.011 242.950,249.556 242.400 C 249.102 241.850,248.847 241.626,248.990 241.901 M86.846 248.876 C 86.821 249.908,86.942 250.841,87.116 250.948 C 87.290 251.056,87.370 250.482,87.293 249.672 C 87.059 247.198,86.895 246.907,86.846 248.876 M308.011 256.800 C 308.015 257.130,308.389 257.850,308.844 258.400 C 309.298 258.950,309.553 259.174,309.410 258.899 C 308.219 256.594,308.006 256.274,308.011 256.800 M88.752 258.887 C 88.937 259.998,88.993 260.055,89.119 259.254 C 89.201 258.733,89.103 258.143,88.901 257.941 C 88.679 257.719,88.621 258.093,88.752 258.887 M141.200 261.800 C 141.946 262.570,142.647 263.200,142.757 263.200 C 142.867 263.200,142.346 262.570,141.600 261.800 C 140.854 261.030,140.153 260.400,140.043 260.400 C 139.933 260.400,140.454 261.030,141.200 261.800 M310.749 261.800 C 310.965 262.240,311.434 262.960,311.793 263.400 L 312.444 264.200 312.051 263.400 C 311.835 262.960,311.366 262.240,311.007 261.800 L 310.356 261.000 310.749 261.800 M89.606 262.233 C 89.609 262.655,89.795 263.270,90.018 263.600 C 90.315 264.038,90.352 263.876,90.156 263.000 C 89.827 261.529,89.598 261.210,89.606 262.233 M172.800 262.860 C 172.030 263.535,171.762 263.905,172.204 263.681 C 172.935 263.311,174.747 261.578,174.362 261.616 C 174.273 261.625,173.570 262.185,172.800 262.860 M156.500 267.887 C 157.105 267.978,158.095 267.978,158.700 267.887 C 159.305 267.795,158.810 267.720,157.600 267.720 C 156.390 267.720,155.895 267.795,156.500 267.887 M184.140 281.200 C 184.140 283.070,184.209 283.835,184.293 282.900 C 184.377 281.965,184.377 280.435,184.293 279.500 C 184.209 278.565,184.140 279.330,184.140 281.200 M269.790 278.701 C 270.981 281.006,271.194 281.326,271.189 280.800 C 271.185 280.470,270.811 279.750,270.356 279.200 C 269.902 278.650,269.647 278.426,269.790 278.701 M230.134 282.800 C 230.134 284.450,230.205 285.125,230.291 284.300 C 230.378 283.475,230.378 282.125,230.291 281.300 C 230.205 280.475,230.134 281.150,230.134 282.800 M99.149 284.600 C 99.365 285.040,99.834 285.760,100.193 286.200 L 100.844 287.000 100.451 286.200 C 100.235 285.760,99.766 285.040,99.407 284.600 L 98.756 283.800 99.149 284.600 M179.753 285.300 C 178.376 287.636,178.286 287.835,178.987 287.000 C 179.800 286.032,180.500 284.800,180.238 284.800 C 180.133 284.800,179.915 285.025,179.753 285.300 M273.604 285.400 C 273.605 285.620,273.963 286.340,274.400 287.000 C 275.436 288.564,275.437 288.008,274.401 286.310 C 273.962 285.589,273.604 285.180,273.604 285.400 M230.157 291.600 C 230.157 294.570,230.220 295.785,230.297 294.300 C 230.374 292.815,230.374 290.385,230.297 288.900 C 230.220 287.415,230.157 288.630,230.157 291.600 M328.659 292.300 C 328.760 292.685,329.200 293.450,329.636 294.000 C 330.368 294.922,330.363 294.867,329.575 293.300 C 328.665 291.492,328.359 291.158,328.659 292.300 M184.856 293.200 C 184.856 293.530,185.011 294.160,185.200 294.600 C 185.417 295.104,185.544 295.178,185.544 294.800 C 185.544 294.470,185.389 293.840,185.200 293.400 C 184.983 292.896,184.856 292.822,184.856 293.200 M229.766 298.994 C 229.542 299.960,229.496 300.664,229.664 300.561 C 230.010 300.347,230.582 297.649,230.334 297.401 C 230.245 297.312,229.990 298.029,229.766 298.994 M329.776 302.440 C 329.626 302.681,328.941 303.124,328.252 303.424 C 327.557 303.726,327.302 303.976,327.678 303.984 C 328.307 303.999,330.935 302.041,330.324 302.013 C 330.172 302.006,329.925 302.198,329.776 302.440 M120.800 303.031 C 120.800 303.301,122.878 304.056,123.076 303.857 C 123.167 303.767,122.692 303.501,122.020 303.267 C 121.349 303.033,120.800 302.927,120.800 303.031 M189.200 303.031 C 189.200 303.301,191.278 304.056,191.476 303.857 C 191.567 303.767,191.092 303.501,190.420 303.267 C 189.749 303.033,189.200 302.927,189.200 303.031 M151.200 305.093 C 149.231 305.324,148.875 305.852,150.813 305.667 C 151.689 305.584,152.505 305.355,152.626 305.158 C 152.748 304.961,152.792 304.829,152.724 304.864 C 152.656 304.899,151.970 305.002,151.200 305.093 M128.500 305.476 C 128.885 305.576,129.515 305.576,129.900 305.476 C 130.285 305.375,129.970 305.293,129.200 305.293 C 128.430 305.293,128.115 305.375,128.500 305.476 M132.033 306.147 C 132.125 306.228,133.820 306.392,135.800 306.511 C 138.337 306.664,138.869 306.630,137.600 306.394 C 135.781 306.056,131.726 305.876,132.033 306.147 M145.100 306.289 C 145.815 306.378,146.985 306.378,147.700 306.289 C 148.415 306.201,147.830 306.128,146.400 306.128 C 144.970 306.128,144.385 306.201,145.100 306.289 " stroke="none" fill="#7c7478" fill-rule="evenodd"></path></g></svg>