<svg id="svg" version="1.1" xmlns="http://www.w3.org/2000/svg" xmlns:xlink="http://www.w3.org/1999/xlink" width="400" height="400" viewBox="0, 0, 400,400"><g id="svgg"><path id="path0" d="M185.105 76.500 C 182.721 78.668,182.800 77.184,182.800 120.060 C 182.800 141.807,182.697 159.600,182.571 159.600 C 182.175 159.600,181.200 158.476,181.200 158.019 C 181.200 157.619,178.134 152.470,177.616 152.000 C 177.495 151.890,176.905 151.142,176.306 150.337 C 171.555 143.960,163.413 138.407,154.790 135.662 C 150.611 134.332,136.682 133.505,132.600 134.344 C 131.500 134.570,128.980 135.065,127.000 135.444 C 125.020 135.823,123.040 136.311,122.600 136.529 C 120.654 137.492,120.383 137.600,119.905 137.602 C 119.384 137.605,118.816 137.882,115.400 139.798 C 108.583 143.621,101.724 150.600,97.898 157.606 C 95.284 162.392,94.000 165.112,94.000 165.861 C 94.000 166.158,93.820 166.400,93.600 166.400 C 93.380 166.400,93.200 166.664,93.200 166.986 C 93.200 167.592,92.224 170.795,91.611 172.200 C 91.419 172.640,90.969 174.350,90.611 176.000 C 90.254 177.650,89.798 179.630,89.600 180.400 C 88.890 183.149,88.165 187.475,87.187 194.800 C 85.386 208.293,85.371 230.040,87.153 243.400 C 88.201 251.256,88.488 253.066,88.805 253.800 C 88.995 254.240,89.230 255.230,89.328 256.000 C 89.743 259.271,92.740 269.481,94.259 272.800 C 95.758 276.077,98.172 280.972,98.400 281.200 C 98.510 281.310,98.985 282.103,99.457 282.961 C 101.542 286.763,110.022 296.400,111.282 296.400 C 111.476 296.400,112.095 296.826,112.657 297.347 C 113.877 298.479,118.677 301.200,119.453 301.200 C 119.754 301.200,120.002 301.335,120.003 301.500 C 120.005 301.665,121.130 302.143,122.503 302.561 C 123.877 302.980,125.180 303.452,125.400 303.611 C 126.884 304.682,141.150 306.270,143.864 305.667 C 144.929 305.430,147.286 305.119,149.102 304.976 C 150.918 304.833,152.504 304.555,152.626 304.358 C 152.748 304.161,153.341 304.000,153.944 304.000 C 154.547 304.000,155.211 303.856,155.420 303.681 C 155.629 303.505,156.773 303.027,157.963 302.618 C 160.920 301.601,165.409 299.383,167.147 298.078 C 169.691 296.169,170.109 295.830,172.167 294.000 C 177.125 289.592,181.963 282.588,183.171 278.070 C 183.704 276.080,184.199 277.173,184.450 280.895 C 185.536 296.968,185.819 298.602,187.932 301.000 C 189.710 303.018,189.468 302.992,207.705 303.116 C 226.812 303.246,226.587 303.274,228.723 300.475 L 229.800 299.062 229.919 191.031 C 230.051 70.901,230.210 79.389,227.776 76.955 L 226.021 75.200 206.277 75.200 L 186.533 75.200 185.105 76.500 M283.218 138.899 C 282.678 139.178,281.641 140.214,280.913 141.203 C 280.185 142.191,279.412 143.217,279.195 143.483 C 278.978 143.749,278.800 144.069,278.800 144.195 C 278.800 144.320,277.720 146.137,276.400 148.232 C 275.080 150.328,274.000 152.126,274.000 152.229 C 274.000 152.555,271.814 155.794,271.500 155.933 C 271.335 156.007,271.200 156.242,271.200 156.455 C 271.200 156.669,269.985 158.769,268.500 161.122 C 267.015 163.475,265.444 166.075,265.009 166.900 C 264.574 167.725,264.079 168.400,263.909 168.400 C 263.739 168.400,263.600 168.582,263.600 168.805 C 263.600 169.027,262.070 171.630,260.200 174.589 C 258.330 177.547,256.800 180.155,256.800 180.384 C 256.800 180.613,256.620 180.800,256.400 180.800 C 256.180 180.800,256.000 180.990,256.000 181.222 C 256.000 181.731,251.951 188.144,251.510 188.333 C 251.340 188.407,251.200 188.634,251.200 188.838 C 251.200 189.042,250.300 190.645,249.200 192.400 C 248.100 194.155,247.200 195.686,247.200 195.802 C 247.200 196.145,244.227 200.588,243.900 200.733 C 243.735 200.807,243.600 201.037,243.600 201.245 C 243.600 201.453,242.490 203.373,241.133 205.511 C 236.227 213.246,235.112 216.333,236.367 218.705 C 236.569 219.087,237.104 220.210,237.556 221.200 C 238.566 223.414,242.781 231.181,243.200 231.600 C 243.430 231.830,244.259 233.260,245.171 235.000 C 245.517 235.660,245.890 236.290,246.001 236.400 C 246.111 236.510,246.466 237.140,246.789 237.800 C 247.112 238.460,247.925 239.900,248.596 241.000 C 249.266 242.100,250.172 243.763,250.608 244.695 C 251.043 245.628,251.535 246.393,251.700 246.395 C 251.865 246.398,252.000 246.564,252.000 246.764 C 252.000 247.086,253.030 248.992,256.061 254.276 C 256.541 255.114,257.329 256.520,257.811 257.400 C 258.293 258.280,259.192 259.900,259.808 261.000 C 260.424 262.100,261.124 263.360,261.364 263.800 C 261.604 264.240,261.890 264.690,262.000 264.800 C 262.110 264.910,262.558 265.720,262.996 266.600 C 263.434 267.480,263.884 268.290,263.996 268.400 C 264.108 268.510,264.396 268.960,264.637 269.400 C 265.252 270.528,267.544 274.664,268.737 276.800 C 269.290 277.790,270.115 279.320,270.571 280.200 C 271.027 281.080,271.521 281.892,271.668 282.004 C 271.816 282.116,272.429 283.196,273.031 284.404 C 273.633 285.612,274.237 286.690,274.372 286.800 C 274.508 286.910,275.088 287.900,275.660 289.000 C 277.156 291.875,278.914 294.967,279.186 295.200 C 279.314 295.310,279.885 296.300,280.454 297.400 C 283.736 303.740,281.352 303.200,306.060 303.199 C 328.862 303.197,328.591 303.228,329.645 300.500 C 330.136 299.227,329.940 294.476,329.379 294.073 C 329.043 293.831,328.486 292.913,327.029 290.200 C 326.793 289.760,326.510 289.310,326.400 289.200 C 326.220 289.020,325.433 287.643,324.229 285.400 C 323.993 284.960,323.706 284.510,323.591 284.400 C 323.100 283.931,322.000 281.993,322.000 281.597 C 322.000 281.360,321.685 280.826,321.300 280.410 C 320.915 279.994,320.246 278.967,319.814 278.127 C 319.382 277.287,318.437 275.652,317.714 274.492 C 316.991 273.333,316.400 272.289,316.400 272.173 C 316.400 272.057,315.770 270.977,315.000 269.773 C 314.230 268.569,313.600 267.508,313.600 267.415 C 313.600 267.322,312.908 266.111,312.063 264.723 C 311.217 263.335,309.747 260.850,308.795 259.200 C 307.844 257.550,306.376 255.079,305.533 253.710 C 304.690 252.340,304.000 251.035,304.000 250.810 C 304.000 250.584,303.820 250.400,303.600 250.400 C 303.380 250.400,303.200 250.246,303.200 250.057 C 303.200 249.749,300.222 244.435,298.348 241.400 C 297.940 240.740,297.483 239.930,297.333 239.600 C 297.182 239.270,296.955 238.910,296.829 238.800 C 296.625 238.622,295.921 237.406,294.629 235.000 C 294.393 234.560,294.110 234.110,294.000 234.000 C 293.890 233.890,293.607 233.440,293.371 233.000 C 292.079 230.594,291.375 229.378,291.171 229.200 C 291.045 229.090,290.818 228.730,290.667 228.400 C 290.517 228.070,290.065 227.260,289.663 226.600 C 289.261 225.940,288.480 224.590,287.928 223.600 C 287.375 222.610,286.243 220.738,285.411 219.441 C 283.431 216.350,283.472 216.001,286.350 211.479 C 287.697 209.361,288.800 207.442,288.800 207.214 C 288.800 206.986,288.951 206.800,289.136 206.800 C 289.320 206.800,289.815 206.082,290.236 205.205 C 290.656 204.327,291.135 203.607,291.300 203.605 C 291.465 203.602,291.600 203.422,291.600 203.204 C 291.600 202.871,293.579 199.520,295.512 196.578 C 295.793 196.150,296.129 195.485,296.258 195.100 C 296.388 194.715,296.652 194.400,296.847 194.400 C 297.041 194.400,297.200 194.208,297.200 193.973 C 297.200 193.739,297.650 192.957,298.200 192.236 C 298.750 191.514,299.200 190.798,299.200 190.643 C 299.200 190.488,299.830 189.377,300.600 188.173 C 301.370 186.969,302.000 185.886,302.000 185.766 C 302.000 185.645,302.450 184.957,303.000 184.236 C 303.550 183.514,304.000 182.716,304.000 182.462 C 304.000 182.208,304.160 182.000,304.357 182.000 C 304.553 182.000,304.826 181.550,304.964 181.000 C 305.102 180.450,305.392 180.000,305.608 180.000 C 305.823 180.000,306.000 179.829,306.000 179.621 C 306.000 179.412,307.080 177.528,308.400 175.432 C 309.720 173.337,310.800 171.438,310.800 171.211 C 310.800 170.985,310.935 170.798,311.100 170.795 C 311.265 170.793,311.744 170.073,312.164 169.195 C 312.585 168.318,313.080 167.600,313.264 167.600 C 313.449 167.600,313.600 167.429,313.600 167.221 C 313.600 167.012,314.680 165.128,316.000 163.032 C 317.320 160.937,318.400 159.038,318.400 158.811 C 318.400 158.585,318.580 158.400,318.800 158.400 C 319.020 158.400,319.200 158.217,319.200 157.993 C 319.200 157.769,320.415 155.657,321.900 153.299 C 327.191 144.898,327.413 144.292,326.207 141.549 C 324.792 138.333,326.798 138.613,304.283 138.496 C 288.701 138.416,283.980 138.506,283.218 138.899 M160.354 168.430 C 171.052 170.170,180.249 178.132,182.616 187.704 C 182.766 188.311,183.049 188.906,183.244 189.027 C 183.447 189.153,183.600 202.321,183.600 219.609 L 183.600 249.972 182.540 251.886 C 179.783 256.867,173.435 263.600,171.496 263.600 C 171.291 263.600,170.646 263.932,170.062 264.339 C 166.187 267.035,156.177 268.235,150.825 266.645 C 141.607 263.906,136.983 257.870,133.169 243.600 C 131.354 236.806,130.552 218.885,131.523 206.800 C 132.092 199.712,133.288 191.474,133.990 189.800 C 134.175 189.360,134.549 188.100,134.822 187.000 C 135.363 184.820,136.972 180.908,138.117 178.992 C 141.725 172.951,146.673 169.754,154.400 168.471 C 157.508 167.954,157.430 167.955,160.354 168.430 " stroke="none" fill="#272827" fill-rule="evenodd"></path><path id="path1" d="M179.900 0.274 C 177.975 0.360,176.400 0.578,176.400 0.757 C 176.400 0.936,174.285 1.209,171.700 1.363 C 169.115 1.517,166.829 1.813,166.620 2.022 C 166.411 2.230,165.376 2.400,164.320 2.400 C 163.264 2.400,162.400 2.557,162.400 2.748 C 162.400 2.940,161.144 3.220,159.609 3.372 C 158.074 3.523,156.714 3.816,156.586 4.023 C 156.458 4.230,155.553 4.400,154.576 4.400 C 153.599 4.400,152.800 4.580,152.800 4.800 C 152.800 5.020,152.170 5.200,151.400 5.200 C 150.630 5.200,150.000 5.362,150.000 5.561 C 150.000 5.759,148.920 6.047,147.600 6.200 C 146.280 6.353,145.200 6.641,145.200 6.839 C 145.200 7.038,144.570 7.200,143.800 7.200 C 143.030 7.200,142.400 7.380,142.400 7.600 C 142.400 7.820,141.950 8.000,141.400 8.000 C 140.850 8.000,140.400 8.163,140.400 8.362 C 140.400 8.562,139.500 8.849,138.400 9.000 C 137.300 9.151,136.400 9.438,136.400 9.638 C 136.400 9.837,135.860 10.000,135.200 10.000 C 134.540 10.000,134.000 10.180,134.000 10.400 C 134.000 10.620,133.685 10.799,133.300 10.798 C 132.291 10.795,128.800 12.099,128.800 12.479 C 128.800 12.656,128.260 12.800,127.600 12.800 C 126.940 12.800,126.400 12.978,126.400 13.195 C 126.400 13.413,125.680 13.706,124.800 13.846 C 123.920 13.987,123.200 14.259,123.200 14.451 C 123.200 14.643,122.840 14.800,122.400 14.800 C 121.960 14.800,121.600 14.980,121.600 15.200 C 121.600 15.420,121.150 15.600,120.600 15.600 C 120.050 15.600,119.600 15.772,119.600 15.982 C 119.600 16.192,118.970 16.482,118.200 16.626 C 117.430 16.771,116.800 17.049,116.800 17.245 C 116.800 17.440,116.530 17.600,116.200 17.600 C 115.870 17.600,115.600 17.780,115.600 18.000 C 115.600 18.220,115.285 18.401,114.900 18.402 C 114.515 18.404,113.684 18.674,113.054 19.002 C 112.424 19.331,111.659 19.600,111.354 19.600 C 111.049 19.600,110.800 19.743,110.800 19.918 C 110.800 20.093,109.990 20.570,109.000 20.978 C 108.010 21.387,107.200 21.873,107.200 22.060 C 107.200 22.247,106.930 22.400,106.600 22.400 C 106.270 22.400,106.000 22.580,106.000 22.800 C 106.000 23.020,105.674 23.200,105.276 23.200 C 104.879 23.200,104.204 23.464,103.776 23.787 C 103.349 24.110,102.685 24.380,102.300 24.387 C 101.915 24.394,101.600 24.580,101.600 24.800 C 101.600 25.020,101.330 25.200,101.000 25.200 C 100.670 25.200,100.400 25.377,100.400 25.592 C 100.400 25.808,99.950 26.098,99.400 26.236 C 98.850 26.374,98.400 26.647,98.400 26.843 C 98.400 27.040,98.052 27.200,97.627 27.200 C 97.202 27.200,96.746 27.541,96.613 27.958 C 96.469 28.414,95.855 28.813,95.073 28.960 C 94.359 29.094,93.515 29.563,93.199 30.002 C 92.882 30.441,92.297 30.800,91.899 30.800 C 91.501 30.800,91.071 31.070,90.945 31.400 C 90.818 31.730,90.386 32.000,89.984 32.000 C 89.583 32.000,89.140 32.360,89.000 32.800 C 88.860 33.240,88.411 33.600,88.002 33.600 C 87.592 33.600,86.987 33.870,86.657 34.200 C 86.327 34.530,85.904 34.800,85.717 34.800 C 85.530 34.800,85.117 35.160,84.800 35.600 C 84.483 36.040,84.036 36.400,83.808 36.400 C 83.579 36.400,82.907 36.850,82.313 37.400 C 81.720 37.950,81.055 38.400,80.836 38.400 C 80.616 38.400,79.986 38.850,79.436 39.400 C 78.886 39.950,78.314 40.400,78.164 40.400 C 78.014 40.400,77.475 40.850,76.965 41.400 C 76.455 41.950,75.826 42.400,75.566 42.400 C 75.307 42.400,74.500 43.030,73.774 43.800 C 73.048 44.570,72.344 45.200,72.210 45.200 C 71.688 45.200,68.800 47.903,68.800 48.391 C 68.800 48.586,68.395 48.869,67.900 49.020 C 67.160 49.245,64.001 52.027,61.880 54.319 C 61.266 54.983,59.790 56.460,59.119 57.081 C 58.834 57.345,58.380 57.795,58.111 58.081 C 57.842 58.366,57.442 58.780,57.222 59.000 C 57.002 59.220,56.376 59.850,55.830 60.400 C 55.285 60.950,54.605 61.616,54.319 61.880 C 52.027 64.001,49.245 67.160,49.020 67.900 C 48.869 68.395,48.586 68.800,48.391 68.800 C 47.903 68.800,45.200 71.688,45.200 72.210 C 45.200 72.344,44.570 73.048,43.800 73.774 C 43.030 74.500,42.400 75.307,42.400 75.566 C 42.400 75.826,41.950 76.455,41.400 76.965 C 40.850 77.475,40.400 78.014,40.400 78.164 C 40.400 78.314,39.950 78.886,39.400 79.436 C 38.850 79.986,38.400 80.616,38.400 80.836 C 38.400 81.055,37.950 81.720,37.400 82.313 C 36.850 82.907,36.400 83.579,36.400 83.808 C 36.400 84.036,36.040 84.483,35.600 84.800 C 35.160 85.117,34.800 85.530,34.800 85.717 C 34.800 85.904,34.530 86.327,34.200 86.657 C 33.870 86.987,33.600 87.592,33.600 88.002 C 33.600 88.411,33.240 88.860,32.800 89.000 C 32.360 89.140,32.000 89.583,32.000 89.984 C 32.000 90.386,31.730 90.818,31.400 90.945 C 31.070 91.071,30.800 91.501,30.800 91.899 C 30.800 92.297,30.441 92.882,30.002 93.199 C 29.563 93.515,29.094 94.359,28.960 95.073 C 28.813 95.855,28.414 96.469,27.958 96.613 C 27.541 96.746,27.200 97.202,27.200 97.627 C 27.200 98.052,27.040 98.400,26.843 98.400 C 26.647 98.400,26.374 98.850,26.236 99.400 C 26.098 99.950,25.808 100.400,25.592 100.400 C 25.377 100.400,25.200 100.670,25.200 101.000 C 25.200 101.330,25.020 101.600,24.800 101.600 C 24.580 101.600,24.394 101.915,24.387 102.300 C 24.380 102.685,24.110 103.349,23.787 103.776 C 23.464 104.204,23.200 104.879,23.200 105.276 C 23.200 105.674,23.020 106.000,22.800 106.000 C 22.580 106.000,22.400 106.270,22.400 106.600 C 22.400 106.930,22.247 107.200,22.060 107.200 C 21.873 107.200,21.387 108.010,20.978 109.000 C 20.570 109.990,20.093 110.800,19.918 110.800 C 19.743 110.800,19.600 111.049,19.600 111.354 C 19.600 111.659,19.331 112.424,19.002 113.054 C 18.674 113.684,18.404 114.515,18.402 114.900 C 18.401 115.285,18.220 115.600,18.000 115.600 C 17.780 115.600,17.600 115.870,17.600 116.200 C 17.600 116.530,17.440 116.800,17.245 116.800 C 17.049 116.800,16.771 117.430,16.626 118.200 C 16.482 118.970,16.192 119.600,15.982 119.600 C 15.772 119.600,15.600 120.050,15.600 120.600 C 15.600 121.150,15.420 121.600,15.200 121.600 C 14.980 121.600,14.800 121.960,14.800 122.400 C 14.800 122.840,14.643 123.200,14.451 123.200 C 14.259 123.200,13.987 123.920,13.846 124.800 C 13.706 125.680,13.413 126.400,13.195 126.400 C 12.978 126.400,12.800 126.940,12.800 127.600 C 12.800 128.260,12.656 128.800,12.479 128.800 C 12.099 128.800,10.795 132.291,10.798 133.300 C 10.799 133.685,10.620 134.000,10.400 134.000 C 10.180 134.000,10.000 134.540,10.000 135.200 C 10.000 135.860,9.837 136.400,9.638 136.400 C 9.438 136.400,9.151 137.300,9.000 138.400 C 8.849 139.500,8.562 140.400,8.362 140.400 C 8.163 140.400,8.000 140.850,8.000 141.400 C 8.000 141.950,7.820 142.400,7.600 142.400 C 7.380 142.400,7.200 143.030,7.200 143.800 C 7.200 144.570,7.038 145.200,6.839 145.200 C 6.641 145.200,6.353 146.280,6.200 147.600 C 6.047 148.920,5.759 150.000,5.561 150.000 C 5.362 150.000,5.200 150.630,5.200 151.400 C 5.200 152.170,5.020 152.800,4.800 152.800 C 4.580 152.800,4.400 153.599,4.400 154.576 C 4.400 155.553,4.230 156.458,4.023 156.586 C 3.816 156.714,3.523 158.074,3.372 159.609 C 3.220 161.144,2.940 162.400,2.748 162.400 C 2.557 162.400,2.400 163.264,2.400 164.320 C 2.400 165.376,2.231 166.411,2.025 166.620 C 1.819 166.829,1.523 169.070,1.367 171.600 C 1.207 174.210,0.893 176.323,0.642 176.485 C 0.328 176.688,0.200 183.475,0.200 200.000 C 0.200 216.525,0.328 223.312,0.642 223.515 C 0.893 223.677,1.207 225.790,1.367 228.400 C 1.523 230.930,1.819 233.171,2.025 233.380 C 2.231 233.589,2.400 234.624,2.400 235.680 C 2.400 236.736,2.557 237.600,2.748 237.600 C 2.940 237.600,3.220 238.856,3.372 240.391 C 3.523 241.926,3.816 243.286,4.023 243.414 C 4.230 243.542,4.400 244.447,4.400 245.424 C 4.400 246.401,4.580 247.200,4.800 247.200 C 5.020 247.200,5.200 247.830,5.200 248.600 C 5.200 249.370,5.362 250.000,5.561 250.000 C 5.759 250.000,6.047 251.080,6.200 252.400 C 6.353 253.720,6.641 254.800,6.839 254.800 C 7.038 254.800,7.200 255.430,7.200 256.200 C 7.200 256.970,7.380 257.600,7.600 257.600 C 7.820 257.600,8.000 258.050,8.000 258.600 C 8.000 259.150,8.163 259.600,8.362 259.600 C 8.562 259.600,8.849 260.500,9.000 261.600 C 9.151 262.700,9.438 263.600,9.638 263.600 C 9.837 263.600,10.000 264.140,10.000 264.800 C 10.000 265.460,10.180 266.000,10.400 266.000 C 10.620 266.000,10.799 266.315,10.798 266.700 C 10.795 267.709,12.099 271.200,12.479 271.200 C 12.656 271.200,12.800 271.740,12.800 272.400 C 12.800 273.060,12.978 273.600,13.195 273.600 C 13.413 273.600,13.706 274.320,13.846 275.200 C 13.987 276.080,14.259 276.800,14.451 276.800 C 14.643 276.800,14.800 277.160,14.800 277.600 C 14.800 278.040,14.980 278.400,15.200 278.400 C 15.420 278.400,15.600 278.850,15.600 279.400 C 15.600 279.950,15.772 280.400,15.982 280.400 C 16.192 280.400,16.482 281.030,16.626 281.800 C 16.771 282.570,17.049 283.200,17.245 283.200 C 17.440 283.200,17.600 283.470,17.600 283.800 C 17.600 284.130,17.780 284.400,18.000 284.400 C 18.220 284.400,18.401 284.715,18.402 285.100 C 18.404 285.485,18.674 286.316,19.002 286.946 C 19.331 287.576,19.600 288.341,19.600 288.646 C 19.600 288.951,19.743 289.200,19.918 289.200 C 20.093 289.200,20.570 290.010,20.978 291.000 C 21.387 291.990,21.873 292.800,22.060 292.800 C 22.247 292.800,22.400 293.070,22.400 293.400 C 22.400 293.730,22.580 294.000,22.800 294.000 C 23.020 294.000,23.200 294.326,23.200 294.724 C 23.200 295.121,23.464 295.796,23.787 296.224 C 24.110 296.651,24.380 297.315,24.387 297.700 C 24.394 298.085,24.580 298.400,24.800 298.400 C 25.020 298.400,25.200 298.670,25.200 299.000 C 25.200 299.330,25.377 299.600,25.592 299.600 C 25.808 299.600,26.098 300.050,26.236 300.600 C 26.374 301.150,26.647 301.600,26.843 301.600 C 27.040 301.600,27.200 301.948,27.200 302.373 C 27.200 302.798,27.541 303.254,27.958 303.387 C 28.414 303.531,28.813 304.145,28.960 304.927 C 29.094 305.641,29.563 306.485,30.002 306.801 C 30.441 307.118,30.800 307.703,30.800 308.101 C 30.800 308.499,31.070 308.929,31.400 309.055 C 31.730 309.182,32.000 309.614,32.000 310.016 C 32.000 310.417,32.360 310.860,32.800 311.000 C 33.240 311.140,33.600 311.589,33.600 311.998 C 33.600 312.408,33.870 313.013,34.200 313.343 C 34.530 313.673,34.800 314.096,34.800 314.283 C 34.800 314.470,35.160 314.883,35.600 315.200 C 36.040 315.517,36.400 315.999,36.400 316.270 C 36.400 316.542,36.850 317.214,37.400 317.764 C 37.950 318.314,38.400 318.944,38.400 319.164 C 38.400 319.384,38.850 320.014,39.400 320.564 C 39.950 321.114,40.400 321.686,40.400 321.836 C 40.400 321.986,40.850 322.525,41.400 323.035 C 41.950 323.545,42.400 324.154,42.400 324.388 C 42.400 324.622,43.030 325.426,43.800 326.174 C 44.570 326.921,45.200 327.646,45.200 327.784 C 45.200 328.311,47.898 331.200,48.391 331.200 C 48.586 331.200,48.869 331.605,49.018 332.100 C 49.267 332.922,50.787 334.600,55.655 339.425 C 56.175 339.940,56.816 340.595,57.081 340.881 C 57.345 341.166,57.795 341.620,58.081 341.889 C 58.366 342.158,58.805 342.583,59.055 342.833 C 59.306 343.084,59.961 343.739,60.511 344.289 C 61.061 344.839,61.712 345.494,61.957 345.745 C 64.923 348.773,67.165 350.746,67.900 350.974 C 68.395 351.128,68.800 351.414,68.800 351.609 C 68.800 352.097,71.688 354.800,72.210 354.800 C 72.344 354.800,73.048 355.430,73.774 356.200 C 74.500 356.970,75.307 357.600,75.566 357.600 C 75.826 357.600,76.455 358.050,76.965 358.600 C 77.475 359.150,78.014 359.600,78.164 359.600 C 78.314 359.600,78.886 360.050,79.436 360.600 C 79.986 361.150,80.616 361.600,80.836 361.600 C 81.056 361.600,81.686 362.050,82.236 362.600 C 82.786 363.150,83.458 363.600,83.730 363.600 C 84.001 363.600,84.483 363.960,84.800 364.400 C 85.117 364.840,85.530 365.200,85.717 365.200 C 85.904 365.200,86.327 365.470,86.657 365.800 C 86.987 366.130,87.592 366.400,88.002 366.400 C 88.411 366.400,88.860 366.760,89.000 367.200 C 89.140 367.640,89.583 368.000,89.984 368.000 C 90.386 368.000,90.818 368.270,90.945 368.600 C 91.071 368.930,91.501 369.200,91.899 369.200 C 92.297 369.200,92.882 369.559,93.199 369.998 C 93.515 370.437,94.359 370.906,95.073 371.040 C 95.855 371.187,96.469 371.586,96.613 372.042 C 96.746 372.459,97.202 372.800,97.627 372.800 C 98.052 372.800,98.400 372.960,98.400 373.157 C 98.400 373.353,98.850 373.626,99.400 373.764 C 99.950 373.902,100.400 374.192,100.400 374.408 C 100.400 374.623,100.670 374.800,101.000 374.800 C 101.330 374.800,101.600 374.980,101.600 375.200 C 101.600 375.420,101.960 375.600,102.400 375.600 C 102.840 375.600,103.200 375.772,103.200 375.982 C 103.200 376.192,103.830 376.482,104.600 376.626 C 105.370 376.771,106.000 377.049,106.000 377.245 C 106.000 377.440,106.270 377.600,106.600 377.600 C 106.930 377.600,107.200 377.753,107.200 377.940 C 107.200 378.127,108.010 378.613,109.000 379.022 C 109.990 379.430,110.800 379.907,110.800 380.082 C 110.800 380.257,111.049 380.400,111.354 380.400 C 111.659 380.400,112.424 380.669,113.054 380.998 C 113.684 381.326,114.515 381.596,114.900 381.598 C 115.285 381.599,115.600 381.780,115.600 382.000 C 115.600 382.220,115.870 382.400,116.200 382.400 C 116.530 382.400,116.800 382.560,116.800 382.755 C 116.800 382.951,117.430 383.229,118.200 383.374 C 118.970 383.518,119.600 383.808,119.600 384.018 C 119.600 384.228,120.050 384.400,120.600 384.400 C 121.150 384.400,121.600 384.580,121.600 384.800 C 121.600 385.020,121.960 385.200,122.400 385.200 C 122.840 385.200,123.200 385.357,123.200 385.549 C 123.200 385.741,123.920 386.013,124.800 386.154 C 125.680 386.294,126.400 386.587,126.400 386.805 C 126.400 387.022,126.940 387.200,127.600 387.200 C 128.260 387.200,128.800 387.344,128.800 387.521 C 128.800 387.901,132.291 389.205,133.300 389.202 C 133.685 389.201,134.000 389.380,134.000 389.600 C 134.000 389.820,134.540 390.000,135.200 390.000 C 135.860 390.000,136.400 390.163,136.400 390.362 C 136.400 390.562,137.300 390.849,138.400 391.000 C 139.500 391.151,140.400 391.438,140.400 391.638 C 140.400 391.837,140.850 392.000,141.400 392.000 C 141.950 392.000,142.400 392.180,142.400 392.400 C 142.400 392.620,143.030 392.800,143.800 392.800 C 144.570 392.800,145.200 392.962,145.200 393.161 C 145.200 393.359,146.280 393.647,147.600 393.800 C 148.920 393.953,150.000 394.241,150.000 394.439 C 150.000 394.638,150.630 394.800,151.400 394.800 C 152.170 394.800,152.800 394.980,152.800 395.200 C 152.800 395.420,153.610 395.600,154.600 395.600 C 155.590 395.600,156.400 395.765,156.400 395.966 C 156.400 396.167,157.750 396.458,159.400 396.613 C 161.050 396.767,162.400 397.053,162.400 397.247 C 162.400 397.441,163.264 397.600,164.320 397.600 C 165.376 397.600,166.411 397.769,166.620 397.975 C 166.829 398.181,169.070 398.477,171.600 398.633 C 174.210 398.793,176.323 399.107,176.485 399.358 C 176.890 399.984,223.110 399.984,223.515 399.358 C 223.677 399.107,225.790 398.793,228.400 398.633 C 230.930 398.477,233.171 398.181,233.380 397.975 C 233.589 397.769,234.624 397.600,235.680 397.600 C 236.736 397.600,237.600 397.441,237.600 397.247 C 237.600 397.053,238.950 396.767,240.600 396.613 C 242.250 396.458,243.600 396.167,243.600 395.966 C 243.600 395.765,244.410 395.600,245.400 395.600 C 246.390 395.600,247.200 395.420,247.200 395.200 C 247.200 394.980,247.830 394.800,248.600 394.800 C 249.370 394.800,250.000 394.638,250.000 394.439 C 250.000 394.241,251.080 393.953,252.400 393.800 C 253.720 393.647,254.800 393.359,254.800 393.161 C 254.800 392.962,255.430 392.800,256.200 392.800 C 256.970 392.800,257.600 392.620,257.600 392.400 C 257.600 392.180,258.050 392.000,258.600 392.000 C 259.150 392.000,259.600 391.837,259.600 391.638 C 259.600 391.438,260.500 391.151,261.600 391.000 C 262.700 390.849,263.600 390.562,263.600 390.362 C 263.600 390.163,264.140 390.000,264.800 390.000 C 265.460 390.000,266.000 389.820,266.000 389.600 C 266.000 389.380,266.315 389.201,266.700 389.202 C 267.709 389.205,271.200 387.901,271.200 387.521 C 271.200 387.344,271.740 387.200,272.400 387.200 C 273.060 387.200,273.600 387.022,273.600 386.805 C 273.600 386.587,274.320 386.294,275.200 386.154 C 276.080 386.013,276.800 385.741,276.800 385.549 C 276.800 385.357,277.160 385.200,277.600 385.200 C 278.040 385.200,278.400 385.020,278.400 384.800 C 278.400 384.580,278.850 384.400,279.400 384.400 C 279.950 384.400,280.400 384.228,280.400 384.018 C 280.400 383.808,281.030 383.518,281.800 383.374 C 282.570 383.229,283.200 382.951,283.200 382.755 C 283.200 382.560,283.470 382.400,283.800 382.400 C 284.130 382.400,284.400 382.220,284.400 382.000 C 284.400 381.780,284.715 381.599,285.100 381.598 C 285.485 381.596,286.316 381.326,286.946 380.998 C 287.576 380.669,288.341 380.400,288.646 380.400 C 288.951 380.400,289.200 380.257,289.200 380.082 C 289.200 379.907,290.010 379.430,291.000 379.022 C 291.990 378.613,292.800 378.127,292.800 377.940 C 292.800 377.753,293.070 377.600,293.400 377.600 C 293.730 377.600,294.000 377.440,294.000 377.245 C 294.000 377.049,294.630 376.771,295.400 376.626 C 296.170 376.482,296.800 376.192,296.800 375.982 C 296.800 375.772,297.160 375.600,297.600 375.600 C 298.040 375.600,298.400 375.420,298.400 375.200 C 298.400 374.980,298.670 374.800,299.000 374.800 C 299.330 374.800,299.600 374.623,299.600 374.408 C 299.600 374.192,300.050 373.902,300.600 373.764 C 301.150 373.626,301.600 373.353,301.600 373.157 C 301.600 372.960,301.948 372.800,302.373 372.800 C 302.798 372.800,303.254 372.459,303.387 372.042 C 303.531 371.586,304.145 371.187,304.927 371.040 C 305.641 370.906,306.485 370.437,306.801 369.998 C 307.118 369.559,307.678 369.200,308.046 369.200 C 308.413 369.200,308.818 368.930,308.945 368.600 C 309.071 368.270,309.528 368.000,309.960 368.000 C 310.395 368.000,310.860 367.642,311.000 367.200 C 311.140 366.760,311.589 366.400,311.998 366.400 C 312.408 366.400,313.013 366.130,313.343 365.800 C 313.673 365.470,314.096 365.200,314.283 365.200 C 314.470 365.200,314.883 364.840,315.200 364.400 C 315.517 363.960,315.999 363.600,316.270 363.600 C 316.542 363.600,317.214 363.150,317.764 362.600 C 318.314 362.050,318.944 361.600,319.164 361.600 C 319.384 361.600,320.014 361.150,320.564 360.600 C 321.114 360.050,321.686 359.600,321.836 359.600 C 321.986 359.600,322.525 359.150,323.035 358.600 C 323.545 358.050,324.174 357.600,324.434 357.600 C 324.693 357.600,325.500 356.970,326.226 356.200 C 326.952 355.430,327.656 354.800,327.790 354.800 C 328.325 354.800,331.200 352.093,331.200 351.589 C 331.200 351.384,331.630 351.107,332.156 350.975 C 332.682 350.843,333.463 350.345,333.891 349.868 C 334.320 349.390,335.105 348.607,335.635 348.128 C 336.166 347.648,336.820 347.018,337.089 346.728 C 337.358 346.437,337.783 345.995,338.033 345.745 C 338.284 345.494,338.910 344.864,339.425 344.345 C 339.940 343.825,340.595 343.184,340.881 342.919 C 341.166 342.655,341.620 342.205,341.889 341.919 C 342.158 341.634,342.583 341.195,342.833 340.945 C 343.084 340.694,343.710 340.064,344.225 339.545 C 344.740 339.025,345.395 338.380,345.681 338.111 C 346.649 337.199,347.237 336.602,348.120 335.635 C 348.604 335.105,349.390 334.320,349.868 333.891 C 350.345 333.463,350.843 332.682,350.975 332.156 C 351.107 331.630,351.384 331.200,351.589 331.200 C 352.093 331.200,354.800 328.325,354.800 327.790 C 354.800 327.656,355.430 326.952,356.200 326.226 C 356.970 325.500,357.600 324.693,357.600 324.434 C 357.600 324.174,358.050 323.545,358.600 323.035 C 359.150 322.525,359.600 321.986,359.600 321.836 C 359.600 321.686,360.050 321.114,360.600 320.564 C 361.150 320.014,361.600 319.384,361.600 319.164 C 361.600 318.944,362.050 318.314,362.600 317.764 C 363.150 317.214,363.600 316.542,363.600 316.270 C 363.600 315.999,363.960 315.517,364.400 315.200 C 364.840 314.883,365.200 314.470,365.200 314.283 C 365.200 314.096,365.470 313.673,365.800 313.343 C 366.130 313.013,366.400 312.408,366.400 311.998 C 366.400 311.589,366.760 311.140,367.200 311.000 C 367.642 310.860,368.000 310.395,368.000 309.960 C 368.000 309.528,368.270 309.071,368.600 308.945 C 368.930 308.818,369.200 308.413,369.200 308.046 C 369.200 307.678,369.559 307.118,369.998 306.801 C 370.437 306.485,370.906 305.641,371.040 304.927 C 371.187 304.145,371.586 303.531,372.042 303.387 C 372.459 303.254,372.800 302.798,372.800 302.373 C 372.800 301.948,372.960 301.600,373.157 301.600 C 373.353 301.600,373.626 301.150,373.764 300.600 C 373.902 300.050,374.192 299.600,374.408 299.600 C 374.623 299.600,374.800 299.330,374.800 299.000 C 374.800 298.670,374.980 298.400,375.200 298.400 C 375.420 298.400,375.600 298.040,375.600 297.600 C 375.600 297.160,375.772 296.800,375.982 296.800 C 376.192 296.800,376.482 296.170,376.626 295.400 C 376.771 294.630,377.049 294.000,377.245 294.000 C 377.440 294.000,377.600 293.730,377.600 293.400 C 377.600 293.070,377.753 292.800,377.940 292.800 C 378.127 292.800,378.613 291.990,379.022 291.000 C 379.430 290.010,379.907 289.200,380.082 289.200 C 380.257 289.200,380.400 288.951,380.400 288.646 C 380.400 288.341,380.669 287.576,380.998 286.946 C 381.326 286.316,381.596 285.485,381.598 285.100 C 381.599 284.715,381.780 284.400,382.000 284.400 C 382.220 284.400,382.400 284.130,382.400 283.800 C 382.400 283.470,382.560 283.200,382.755 283.200 C 382.951 283.200,383.229 282.570,383.374 281.800 C 383.518 281.030,383.808 280.400,384.018 280.400 C 384.228 280.400,384.400 279.950,384.400 279.400 C 384.400 278.850,384.580 278.400,384.800 278.400 C 385.020 278.400,385.200 278.040,385.200 277.600 C 385.200 277.160,385.357 276.800,385.549 276.800 C 385.741 276.800,386.013 276.080,386.154 275.200 C 386.294 274.320,386.587 273.600,386.805 273.600 C 387.022 273.600,387.200 273.060,387.200 272.400 C 387.200 271.740,387.344 271.200,387.521 271.200 C 387.901 271.200,389.205 267.709,389.202 266.700 C 389.201 266.315,389.380 266.000,389.600 266.000 C 389.820 266.000,390.000 265.460,390.000 264.800 C 390.000 264.140,390.163 263.600,390.362 263.600 C 390.562 263.600,390.849 262.700,391.000 261.600 C 391.151 260.500,391.438 259.600,391.638 259.600 C 391.837 259.600,392.000 259.150,392.000 258.600 C 392.000 258.050,392.180 257.600,392.400 257.600 C 392.620 257.600,392.800 256.970,392.800 256.200 C 392.800 255.430,392.962 254.800,393.161 254.800 C 393.359 254.800,393.647 253.720,393.800 252.400 C 393.953 251.080,394.241 250.000,394.439 250.000 C 394.638 250.000,394.800 249.370,394.800 248.600 C 394.800 247.830,394.980 247.200,395.200 247.200 C 395.420 247.200,395.600 246.390,395.600 245.400 C 395.600 244.410,395.765 243.600,395.966 243.600 C 396.167 243.600,396.458 242.250,396.613 240.600 C 396.767 238.950,397.053 237.600,397.247 237.600 C 397.441 237.600,397.600 236.736,397.600 235.680 C 397.600 234.624,397.769 233.589,397.975 233.380 C 398.181 233.171,398.477 230.930,398.633 228.400 C 398.793 225.790,399.107 223.677,399.358 223.515 C 399.672 223.312,399.800 216.525,399.800 200.000 C 399.800 183.475,399.672 176.688,399.358 176.485 C 399.107 176.323,398.793 174.210,398.633 171.600 C 398.477 169.070,398.181 166.829,397.975 166.620 C 397.769 166.411,397.600 165.376,397.600 164.320 C 397.600 163.264,397.441 162.400,397.247 162.400 C 397.053 162.400,396.767 161.050,396.613 159.400 C 396.458 157.750,396.167 156.400,395.966 156.400 C 395.765 156.400,395.600 155.590,395.600 154.600 C 395.600 153.610,395.420 152.800,395.200 152.800 C 394.980 152.800,394.800 152.170,394.800 151.400 C 394.800 150.630,394.638 150.000,394.439 150.000 C 394.241 150.000,393.953 148.920,393.800 147.600 C 393.647 146.280,393.359 145.200,393.161 145.200 C 392.962 145.200,392.800 144.570,392.800 143.800 C 392.800 143.030,392.620 142.400,392.400 142.400 C 392.180 142.400,392.000 141.950,392.000 141.400 C 392.000 140.850,391.837 140.400,391.638 140.400 C 391.438 140.400,391.151 139.500,391.000 138.400 C 390.849 137.300,390.562 136.400,390.362 136.400 C 390.163 136.400,390.000 135.860,390.000 135.200 C 390.000 134.540,389.820 134.000,389.600 134.000 C 389.380 134.000,389.201 133.685,389.202 133.300 C 389.205 132.291,387.901 128.800,387.521 128.800 C 387.344 128.800,387.200 128.260,387.200 127.600 C 387.200 126.940,387.022 126.400,386.805 126.400 C 386.587 126.400,386.294 125.680,386.154 124.800 C 386.013 123.920,385.741 123.200,385.549 123.200 C 385.357 123.200,385.200 122.840,385.200 122.400 C 385.200 121.960,385.020 121.600,384.800 121.600 C 384.580 121.600,384.400 121.150,384.400 120.600 C 384.400 120.050,384.228 119.600,384.018 119.600 C 383.808 119.600,383.518 118.970,383.374 118.200 C 383.229 117.430,382.951 116.800,382.755 116.800 C 382.560 116.800,382.400 116.530,382.400 116.200 C 382.400 115.870,382.220 115.600,382.000 115.600 C 381.780 115.600,381.599 115.285,381.598 114.900 C 381.596 114.515,381.326 113.684,380.998 113.054 C 380.669 112.424,380.400 111.659,380.400 111.354 C 380.400 111.049,380.257 110.800,380.082 110.800 C 379.907 110.800,379.430 109.990,379.022 109.000 C 378.613 108.010,378.127 107.200,377.940 107.200 C 377.753 107.200,377.600 106.930,377.600 106.600 C 377.600 106.270,377.440 106.000,377.245 106.000 C 377.049 106.000,376.771 105.370,376.626 104.600 C 376.482 103.830,376.192 103.200,375.982 103.200 C 375.772 103.200,375.600 102.840,375.600 102.400 C 375.600 101.960,375.420 101.600,375.200 101.600 C 374.980 101.600,374.800 101.330,374.800 101.000 C 374.800 100.670,374.623 100.400,374.408 100.400 C 374.192 100.400,373.902 99.950,373.764 99.400 C 373.626 98.850,373.353 98.400,373.157 98.400 C 372.960 98.400,372.800 98.052,372.800 97.627 C 372.800 97.202,372.459 96.746,372.042 96.613 C 371.586 96.469,371.187 95.855,371.040 95.073 C 370.906 94.359,370.437 93.515,369.998 93.199 C 369.559 92.882,369.200 92.297,369.200 91.899 C 369.200 91.501,368.930 91.071,368.600 90.945 C 368.270 90.818,368.000 90.386,368.000 89.984 C 368.000 89.583,367.640 89.140,367.200 89.000 C 366.760 88.860,366.400 88.411,366.400 88.002 C 366.400 87.592,366.130 86.987,365.800 86.657 C 365.470 86.327,365.200 85.904,365.200 85.717 C 365.200 85.530,364.840 85.117,364.400 84.800 C 363.960 84.483,363.600 84.001,363.600 83.730 C 363.600 83.458,363.150 82.786,362.600 82.236 C 362.050 81.686,361.600 81.056,361.600 80.836 C 361.600 80.616,361.150 79.986,360.600 79.436 C 360.050 78.886,359.600 78.314,359.600 78.164 C 359.600 78.014,359.150 77.475,358.600 76.965 C 358.050 76.455,357.600 75.826,357.600 75.566 C 357.600 75.307,356.970 74.500,356.200 73.774 C 355.430 73.048,354.800 72.344,354.800 72.210 C 354.800 71.688,352.097 68.800,351.609 68.800 C 351.414 68.800,351.131 68.395,350.980 67.900 C 350.755 67.160,347.973 64.001,345.681 61.880 C 345.017 61.266,343.540 59.790,342.919 59.119 C 342.655 58.834,342.205 58.380,341.919 58.111 C 341.634 57.842,341.195 57.417,340.945 57.167 C 337.812 54.033,337.903 54.123,335.288 51.545 C 334.029 50.305,332.595 49.168,332.100 49.018 C 331.605 48.869,331.200 48.586,331.200 48.391 C 331.200 47.898,328.311 45.200,327.784 45.200 C 327.646 45.200,326.921 44.570,326.174 43.800 C 325.426 43.030,324.622 42.400,324.388 42.400 C 324.154 42.400,323.545 41.950,323.035 41.400 C 322.525 40.850,321.986 40.400,321.836 40.400 C 321.686 40.400,321.114 39.950,320.564 39.400 C 320.014 38.850,319.384 38.400,319.164 38.400 C 318.944 38.400,318.314 37.950,317.764 37.400 C 317.214 36.850,316.542 36.400,316.270 36.400 C 315.999 36.400,315.517 36.040,315.200 35.600 C 314.883 35.160,314.470 34.800,314.283 34.800 C 314.096 34.800,313.673 34.530,313.343 34.200 C 313.013 33.870,312.408 33.600,311.998 33.600 C 311.589 33.600,311.140 33.240,311.000 32.800 C 310.860 32.360,310.417 32.000,310.016 32.000 C 309.614 32.000,309.182 31.730,309.055 31.400 C 308.929 31.070,308.499 30.800,308.101 30.800 C 307.703 30.800,307.118 30.441,306.801 30.002 C 306.485 29.563,305.641 29.094,304.927 28.960 C 304.145 28.813,303.531 28.414,303.387 27.958 C 303.254 27.541,302.798 27.200,302.373 27.200 C 301.948 27.200,301.600 27.040,301.600 26.843 C 301.600 26.647,301.150 26.374,300.600 26.236 C 300.050 26.098,299.600 25.808,299.600 25.592 C 299.600 25.377,299.330 25.200,299.000 25.200 C 298.670 25.200,298.400 25.020,298.400 24.800 C 298.400 24.580,298.085 24.394,297.700 24.387 C 297.315 24.380,296.651 24.110,296.224 23.787 C 295.796 23.464,295.121 23.200,294.724 23.200 C 294.326 23.200,294.000 23.020,294.000 22.800 C 294.000 22.580,293.730 22.400,293.400 22.400 C 293.070 22.400,292.800 22.247,292.800 22.060 C 292.800 21.873,291.990 21.387,291.000 20.978 C 290.010 20.570,289.200 20.093,289.200 19.918 C 289.200 19.743,288.951 19.600,288.646 19.600 C 288.341 19.600,287.576 19.331,286.946 19.002 C 286.316 18.674,285.485 18.404,285.100 18.402 C 284.715 18.401,284.400 18.220,284.400 18.000 C 284.400 17.780,284.130 17.600,283.800 17.600 C 283.470 17.600,283.200 17.440,283.200 17.245 C 283.200 17.049,282.570 16.771,281.800 16.626 C 281.030 16.482,280.400 16.192,280.400 15.982 C 280.400 15.772,279.950 15.600,279.400 15.600 C 278.850 15.600,278.400 15.420,278.400 15.200 C 278.400 14.980,278.040 14.800,277.600 14.800 C 277.160 14.800,276.800 14.643,276.800 14.451 C 276.800 14.259,276.080 13.987,275.200 13.846 C 274.320 13.706,273.600 13.413,273.600 13.195 C 273.600 12.978,273.060 12.800,272.400 12.800 C 271.740 12.800,271.200 12.656,271.200 12.479 C 271.200 12.099,267.709 10.795,266.700 10.798 C 266.315 10.799,266.000 10.620,266.000 10.400 C 266.000 10.180,265.460 10.000,264.800 10.000 C 264.140 10.000,263.600 9.837,263.600 9.638 C 263.600 9.438,262.700 9.151,261.600 9.000 C 260.500 8.849,259.600 8.562,259.600 8.362 C 259.600 8.163,259.150 8.000,258.600 8.000 C 258.050 8.000,257.600 7.820,257.600 7.600 C 257.600 7.380,256.970 7.200,256.200 7.200 C 255.430 7.200,254.800 7.038,254.800 6.839 C 254.800 6.641,253.720 6.353,252.400 6.200 C 251.080 6.047,250.000 5.759,250.000 5.561 C 250.000 5.362,249.370 5.200,248.600 5.200 C 247.830 5.200,247.200 5.020,247.200 4.800 C 247.200 4.580,246.401 4.400,245.424 4.400 C 244.447 4.400,243.542 4.230,243.414 4.023 C 243.286 3.816,241.926 3.523,240.391 3.372 C 238.856 3.220,237.600 2.940,237.600 2.748 C 237.600 2.557,236.736 2.400,235.680 2.400 C 234.624 2.400,233.589 2.231,233.380 2.025 C 233.171 1.819,230.930 1.523,228.400 1.367 C 225.870 1.212,223.676 0.892,223.523 0.657 C 223.249 0.232,187.761 -0.079,179.900 0.274 M226.113 74.948 C 227.465 75.524,228.960 77.051,229.860 78.775 C 230.560 80.116,230.671 297.632,229.973 299.474 C 228.434 303.537,228.100 303.600,208.200 303.600 C 189.241 303.600,189.507 303.631,187.428 301.161 C 185.210 298.524,185.206 298.506,184.052 281.800 C 183.885 279.380,183.715 277.717,183.674 278.105 C 183.633 278.493,183.429 279.123,183.219 279.505 C 183.010 279.887,182.524 280.920,182.140 281.800 C 181.756 282.680,181.332 283.490,181.198 283.600 C 181.064 283.710,180.725 284.367,180.445 285.060 C 180.165 285.754,179.500 286.730,178.968 287.230 C 178.436 287.730,178.000 288.341,178.000 288.587 C 178.000 289.476,167.800 298.800,166.827 298.800 C 166.592 298.800,166.400 298.953,166.400 299.139 C 166.400 299.326,165.635 299.816,164.700 300.228 C 163.765 300.641,162.910 301.078,162.800 301.200 C 162.531 301.499,159.775 302.633,157.800 303.257 C 156.920 303.536,156.029 303.907,155.820 304.082 C 155.611 304.257,154.972 304.400,154.400 304.400 C 153.828 304.400,153.189 304.568,152.980 304.773 C 152.086 305.650,137.678 306.757,136.226 306.060 C 135.772 305.841,133.960 305.555,132.200 305.424 C 129.034 305.188,125.506 304.439,124.953 303.886 C 124.795 303.729,124.257 303.600,123.757 303.600 C 123.257 303.600,122.736 303.420,122.600 303.200 C 122.464 302.980,122.055 302.800,121.692 302.800 C 120.828 302.800,114.400 299.569,114.400 299.134 C 114.400 298.950,114.161 298.800,113.870 298.800 C 113.578 298.800,112.917 298.350,112.400 297.800 C 111.883 297.250,111.264 296.800,111.023 296.800 C 109.954 296.800,101.432 287.407,99.773 284.400 C 99.348 283.630,98.910 282.910,98.800 282.800 C 98.418 282.418,97.600 280.991,96.907 279.500 C 96.525 278.675,96.074 278.000,95.906 278.000 C 95.738 278.000,95.600 277.802,95.600 277.560 C 95.600 277.126,95.022 275.712,93.571 272.600 C 93.161 271.720,92.710 270.503,92.568 269.896 C 92.427 269.289,92.151 268.694,91.956 268.573 C 91.760 268.452,91.600 267.911,91.600 267.371 C 91.600 266.831,91.421 266.077,91.202 265.695 C 90.694 264.808,88.800 256.977,88.800 255.764 C 88.800 255.260,88.644 254.751,88.453 254.632 C 88.261 254.514,87.959 253.109,87.779 251.509 C 87.600 249.909,87.390 248.330,87.312 248.000 C 87.076 246.995,86.403 241.649,85.928 237.000 C 85.344 231.283,85.347 207.468,85.933 201.800 C 87.027 191.218,87.962 184.319,88.414 183.505 C 88.626 183.123,88.800 182.277,88.800 181.624 C 88.800 180.972,88.963 180.024,89.162 179.519 C 89.360 179.013,89.842 177.106,90.231 175.280 C 90.621 173.455,91.088 171.869,91.270 171.757 C 91.451 171.645,91.600 171.124,91.600 170.600 C 91.600 170.076,91.780 169.536,92.000 169.400 C 92.220 169.264,92.400 168.876,92.400 168.537 C 92.400 167.923,92.837 166.839,94.648 162.960 C 95.171 161.838,95.600 160.728,95.600 160.493 C 95.600 160.259,95.735 160.007,95.900 159.933 C 96.065 159.860,96.722 158.810,97.359 157.600 C 98.733 154.993,101.427 151.162,103.276 149.184 C 104.004 148.405,104.800 147.415,105.044 146.984 C 105.501 146.176,109.733 142.605,110.800 142.127 C 111.130 141.979,111.496 141.718,111.613 141.546 C 112.012 140.961,118.009 137.791,120.800 136.688 C 121.350 136.471,122.160 136.150,122.600 135.974 C 130.203 132.947,150.076 132.954,157.400 135.987 C 158.534 136.457,160.777 137.398,162.300 138.044 C 163.015 138.347,163.600 138.731,163.600 138.898 C 163.600 139.064,163.781 139.200,164.002 139.200 C 166.098 139.200,178.800 151.194,178.800 153.173 C 178.800 153.408,178.965 153.600,179.167 153.600 C 179.368 153.600,180.133 154.815,180.867 156.300 L 182.200 159.000 182.295 119.200 C 182.396 76.920,182.322 78.500,184.302 76.480 C 186.291 74.450,186.482 74.432,206.313 74.416 C 221.121 74.403,225.083 74.510,226.113 74.948 M324.388 138.512 C 327.009 139.838,328.067 144.325,326.389 147.000 C 325.974 147.660,325.349 148.761,324.998 149.446 C 324.647 150.131,324.009 151.069,323.580 151.529 C 323.151 151.990,322.792 152.509,322.783 152.683 C 322.774 152.857,321.962 154.260,320.980 155.800 C 319.998 157.340,319.075 158.870,318.930 159.200 C 318.616 159.912,314.728 166.111,314.413 166.400 C 314.294 166.510,313.664 167.635,313.013 168.900 C 312.363 170.165,311.689 171.200,311.516 171.200 C 311.342 171.200,311.200 171.382,311.200 171.604 C 311.200 171.827,310.300 173.445,309.200 175.200 C 308.100 176.955,307.200 178.573,307.200 178.796 C 307.200 179.018,307.041 179.200,306.846 179.200 C 306.651 179.200,306.196 179.785,305.835 180.500 C 305.049 182.056,304.285 183.326,303.971 183.600 C 303.845 183.710,303.613 184.070,303.455 184.400 C 303.298 184.730,302.949 185.360,302.680 185.800 C 300.200 189.862,298.484 192.634,297.895 193.529 C 297.508 194.118,297.082 194.915,296.949 195.300 C 296.816 195.685,296.589 196.000,296.444 196.000 C 296.300 196.000,295.829 196.675,295.397 197.500 C 294.965 198.325,294.024 199.936,293.306 201.081 C 292.588 202.225,292.000 203.328,292.000 203.532 C 292.000 203.735,291.711 204.142,291.358 204.435 C 291.005 204.727,290.556 205.335,290.359 205.784 C 289.950 206.720,289.108 208.106,288.771 208.400 C 288.645 208.510,288.421 208.870,288.273 209.200 C 288.126 209.530,287.779 210.149,287.503 210.577 C 283.991 216.004,283.960 216.119,285.430 218.448 C 285.997 219.345,286.924 220.917,287.491 221.940 C 288.057 222.963,288.638 223.890,288.781 224.000 C 288.925 224.110,289.360 224.830,289.750 225.600 C 290.514 227.110,290.774 227.568,292.590 230.608 C 294.847 234.386,295.633 235.802,295.863 236.500 C 295.990 236.885,296.231 237.200,296.400 237.200 C 296.569 237.200,296.816 237.515,296.949 237.900 C 297.082 238.285,297.508 239.087,297.895 239.682 C 299.462 242.086,302.369 247.056,302.646 247.803 C 302.809 248.241,303.045 248.690,303.171 248.800 C 303.297 248.910,303.593 249.360,303.829 249.800 C 305.201 252.355,305.856 253.445,306.313 253.934 C 306.595 254.236,307.205 255.230,307.667 256.142 C 308.129 257.054,308.628 257.890,308.775 258.000 C 308.921 258.110,309.352 258.830,309.732 259.600 C 310.469 261.096,311.273 262.473,311.600 262.800 C 311.710 262.910,312.083 263.540,312.429 264.200 C 313.420 266.091,314.180 267.383,314.429 267.600 C 314.555 267.710,314.774 268.070,314.916 268.400 C 315.058 268.730,315.718 269.900,316.382 271.000 C 317.046 272.100,317.714 273.270,317.866 273.600 C 318.017 273.930,318.254 274.290,318.392 274.400 C 318.529 274.510,318.955 275.230,319.338 276.000 C 320.012 277.356,320.724 278.587,322.406 281.300 C 322.849 282.015,323.320 282.915,323.452 283.300 C 323.585 283.685,323.831 284.000,324.000 284.000 C 324.169 284.000,324.408 284.315,324.532 284.700 C 324.656 285.085,325.304 286.300,325.973 287.400 C 326.642 288.500,327.506 290.030,327.894 290.800 C 328.282 291.570,328.735 292.260,328.900 292.333 C 329.065 292.407,329.200 292.662,329.200 292.902 C 329.200 293.141,329.487 293.654,329.838 294.042 C 330.775 295.078,330.744 299.894,329.789 301.510 C 328.548 303.612,328.683 303.600,306.043 303.600 C 283.560 303.600,282.792 303.538,282.100 301.656 C 281.967 301.295,281.746 300.910,281.608 300.800 C 281.244 300.508,280.000 297.755,280.000 297.240 C 280.000 296.998,279.841 296.800,279.647 296.800 C 279.452 296.800,279.187 296.485,279.058 296.100 C 278.929 295.715,278.098 294.257,277.211 292.860 C 276.325 291.463,275.600 290.200,275.600 290.053 C 275.600 289.906,275.142 289.112,274.583 288.289 C 274.024 287.466,272.666 285.056,271.565 282.933 C 270.465 280.810,269.258 278.606,268.882 278.035 C 267.752 276.315,267.256 275.468,266.519 274.000 C 266.133 273.230,265.000 271.160,264.003 269.400 C 263.006 267.640,261.922 265.660,261.595 265.000 C 261.268 264.340,260.775 263.562,260.500 263.271 C 260.225 262.981,260.000 262.486,260.000 262.171 C 260.000 261.857,259.862 261.600,259.694 261.600 C 259.526 261.600,259.069 260.925,258.679 260.100 C 257.843 258.334,256.285 255.485,256.000 255.200 C 255.768 254.968,255.456 254.414,253.159 250.151 C 252.225 248.418,251.353 246.910,251.221 246.800 C 250.997 246.614,250.231 245.203,247.637 240.200 C 247.067 239.100,246.510 238.110,246.400 238.000 C 246.290 237.890,246.007 237.440,245.771 237.000 C 244.567 234.757,243.780 233.380,243.600 233.200 C 243.490 233.090,243.204 232.640,242.963 232.200 C 242.010 230.452,239.825 226.523,239.072 225.200 C 237.574 222.570,237.205 221.800,237.202 221.300 C 237.201 221.025,237.020 220.800,236.800 220.800 C 236.580 220.800,236.400 220.451,236.400 220.024 C 236.400 219.597,236.220 219.136,236.000 219.000 C 235.780 218.864,235.600 217.694,235.600 216.400 C 235.600 215.106,235.780 213.936,236.000 213.800 C 236.220 213.664,236.400 213.113,236.400 212.576 C 236.400 212.039,236.539 211.600,236.709 211.600 C 236.879 211.600,237.371 210.925,237.803 210.100 C 238.714 208.360,241.222 204.293,241.566 204.000 C 241.872 203.738,242.702 202.408,243.187 201.400 C 243.398 200.960,244.376 199.340,245.360 197.800 C 246.344 196.260,247.536 194.235,248.010 193.300 C 248.484 192.365,249.035 191.600,249.236 191.600 C 249.436 191.600,249.600 191.418,249.600 191.196 C 249.600 190.800,253.479 184.396,253.958 184.000 C 254.091 183.890,254.393 183.440,254.629 183.000 C 255.921 180.594,256.625 179.378,256.829 179.200 C 256.955 179.090,257.179 178.730,257.327 178.400 C 257.474 178.070,257.821 177.451,258.097 177.023 C 258.374 176.596,259.215 175.246,259.966 174.023 C 260.717 172.801,261.437 171.710,261.566 171.600 C 261.774 171.423,262.144 170.786,263.771 167.815 C 264.007 167.384,264.425 166.786,264.700 166.487 C 264.975 166.188,265.200 165.686,265.200 165.371 C 265.200 165.057,265.380 164.800,265.600 164.800 C 265.820 164.800,266.000 164.623,266.000 164.408 C 266.000 164.029,268.688 159.608,269.166 159.200 C 269.502 158.913,270.270 157.619,271.066 156.000 C 271.444 155.230,272.169 154.043,272.677 153.362 C 273.185 152.681,273.600 152.010,273.600 151.870 C 273.600 151.562,276.423 147.082,276.795 146.800 C 276.940 146.690,277.181 146.330,277.332 146.000 C 277.482 145.670,278.009 144.756,278.503 143.970 C 278.996 143.183,279.833 141.797,280.363 140.889 C 282.087 137.934,281.401 138.019,303.600 138.015 C 318.650 138.013,323.637 138.132,324.388 138.512 M154.000 169.198 C 146.743 169.993,141.025 174.040,137.857 180.625 C 136.264 183.936,136.112 184.317,135.398 186.800 C 135.049 188.010,134.592 189.553,134.382 190.228 C 134.172 190.904,134.000 191.851,134.000 192.334 C 134.000 192.816,133.829 193.523,133.620 193.905 C 131.062 198.582,131.117 236.858,133.692 243.200 C 133.826 243.530,134.029 244.250,134.144 244.800 C 134.805 247.974,135.327 249.845,135.642 250.180 C 135.839 250.389,136.000 250.974,136.000 251.480 C 136.000 251.986,136.138 252.400,136.306 252.400 C 136.627 252.400,138.000 255.320,138.000 256.003 C 138.000 256.221,138.141 256.400,138.314 256.400 C 138.486 256.400,138.970 256.980,139.389 257.689 C 140.357 259.328,145.149 264.000,145.862 264.000 C 146.158 264.000,146.400 264.138,146.400 264.306 C 146.400 264.696,150.041 266.000,151.130 266.000 C 151.583 266.000,152.064 266.180,152.200 266.400 C 152.343 266.632,154.530 266.800,157.400 266.800 C 160.270 266.800,162.457 266.632,162.600 266.400 C 162.736 266.180,163.355 266.000,163.975 266.000 C 165.257 266.000,169.639 264.364,170.400 263.601 C 170.510 263.490,171.217 263.056,171.972 262.635 C 174.498 261.226,179.458 256.473,180.564 254.400 C 180.857 253.850,181.570 252.535,182.149 251.479 L 183.200 249.558 183.200 219.602 C 183.200 200.064,183.061 189.561,182.800 189.400 C 182.580 189.264,182.400 188.862,182.400 188.507 C 182.400 187.923,179.435 181.569,178.710 180.600 C 178.545 180.380,177.510 179.120,176.409 177.800 C 175.308 176.480,174.406 175.265,174.404 175.100 C 174.402 174.935,174.185 174.800,173.922 174.800 C 173.659 174.800,172.984 174.362,172.422 173.827 C 171.130 172.597,167.282 170.567,165.534 170.193 C 164.800 170.036,164.020 169.772,163.800 169.606 C 163.183 169.141,156.906 168.880,154.000 169.198 " stroke="none" fill="#fbfbfb" fill-rule="evenodd"></path><path id="path2" d="M187.115 74.728 C 186.738 74.878,195.416 75.000,206.400 75.000 C 217.384 75.000,226.062 74.878,225.685 74.728 C 225.308 74.579,216.630 74.456,206.400 74.456 C 196.170 74.456,187.492 74.579,187.115 74.728 M182.900 78.293 C 182.511 79.124,182.400 88.144,182.400 119.103 C 182.400 149.043,182.286 158.777,181.938 158.562 C 181.652 158.385,181.585 158.452,181.762 158.738 C 182.710 160.272,182.800 156.833,182.800 119.080 C 182.800 90.162,182.924 78.836,183.245 78.515 C 183.490 78.270,183.625 77.880,183.545 77.648 C 183.465 77.416,183.175 77.706,182.900 78.293 M229.667 79.220 C 229.901 79.892,230.167 80.367,230.257 80.276 C 230.456 80.078,229.701 78.000,229.431 78.000 C 229.327 78.000,229.433 78.549,229.667 79.220 M131.400 134.010 C 130.866 134.247,131.198 134.286,132.400 134.127 C 133.390 133.996,134.275 133.824,134.367 133.744 C 134.714 133.443,132.164 133.672,131.400 134.010 M146.833 133.743 C 146.925 133.821,147.630 134.001,148.400 134.142 C 149.385 134.323,149.622 134.282,149.200 134.006 C 148.658 133.650,146.437 133.403,146.833 133.743 M126.600 134.800 C 125.511 135.077,125.493 135.107,126.400 135.125 C 126.950 135.135,127.760 134.989,128.200 134.800 C 129.186 134.376,128.266 134.376,126.600 134.800 M152.400 134.782 C 152.730 135.005,153.345 135.191,153.767 135.194 C 154.790 135.202,154.471 134.973,153.000 134.644 C 152.124 134.448,151.962 134.485,152.400 134.782 M160.400 137.373 C 160.400 137.453,161.120 137.895,162.000 138.353 C 162.880 138.812,163.600 139.031,163.600 138.840 C 163.600 138.649,163.285 138.385,162.900 138.253 C 162.515 138.121,161.795 137.836,161.300 137.619 C 160.805 137.403,160.400 137.292,160.400 137.373 M281.970 138.913 C 281.623 139.181,281.014 139.940,280.616 140.600 C 279.893 141.799,279.894 141.799,280.970 140.506 C 281.563 139.795,282.352 139.036,282.724 138.819 C 283.096 138.602,283.220 138.425,283.000 138.425 C 282.780 138.425,282.316 138.645,281.970 138.913 M324.033 138.500 C 324.125 138.555,324.740 139.050,325.400 139.600 L 326.600 140.600 325.630 139.500 C 325.097 138.895,324.482 138.400,324.264 138.400 C 324.045 138.400,323.942 138.445,324.033 138.500 M326.794 143.882 C 326.687 145.246,326.745 146.217,326.923 146.039 C 327.100 145.860,327.188 144.744,327.117 143.557 L 326.989 141.400 326.794 143.882 M105.875 145.922 C 105.284 146.539,104.800 147.169,104.800 147.322 C 104.800 147.610,105.790 146.676,106.749 145.483 C 107.614 144.407,107.059 144.686,105.875 145.922 M324.253 150.100 L 323.533 151.400 324.358 150.400 C 325.089 149.513,325.414 148.800,325.086 148.800 C 325.024 148.800,324.649 149.385,324.253 150.100 M176.400 149.848 C 176.400 150.058,176.953 150.853,177.629 151.615 L 178.858 153.000 177.745 151.400 C 177.133 150.520,176.580 149.725,176.516 149.633 C 176.452 149.542,176.400 149.638,176.400 149.848 M272.300 153.814 C 271.301 155.150,271.431 155.523,272.446 154.233 C 272.911 153.642,273.226 153.095,273.146 153.018 C 273.066 152.941,272.685 153.300,272.300 153.814 M179.215 153.800 C 179.217 154.020,179.586 154.650,180.036 155.200 C 180.579 155.864,180.715 155.931,180.440 155.400 C 179.766 154.095,179.212 153.372,179.215 153.800 M319.800 157.200 C 319.459 157.860,319.269 158.400,319.379 158.400 C 319.489 158.400,319.859 157.860,320.200 157.200 C 320.541 156.540,320.731 156.000,320.621 156.000 C 320.511 156.000,320.141 156.540,319.800 157.200 M317.353 161.300 C 315.976 163.636,315.886 163.835,316.587 163.000 C 317.400 162.032,318.100 160.800,317.838 160.800 C 317.733 160.800,317.515 161.025,317.353 161.300 M154.800 168.770 C 153.966 168.927,155.099 169.033,157.600 169.031 C 160.558 169.029,161.327 168.942,160.200 168.737 C 158.319 168.395,156.732 168.405,154.800 168.770 M163.827 169.555 C 164.252 169.944,166.729 170.596,166.354 170.220 C 166.219 170.086,165.511 169.804,164.781 169.595 C 164.051 169.385,163.622 169.368,163.827 169.555 M91.079 171.900 C 90.769 172.453,90.332 174.602,90.580 174.354 C 90.877 174.056,91.605 171.600,91.396 171.600 C 91.314 171.600,91.171 171.735,91.079 171.900 M172.139 173.600 C 172.891 174.260,173.623 174.800,173.767 174.800 C 173.910 174.800,173.413 174.260,172.661 173.600 C 171.909 172.940,171.177 172.400,171.033 172.400 C 170.890 172.400,171.387 172.940,172.139 173.600 M141.775 174.500 L 140.600 175.800 141.900 174.625 C 143.112 173.530,143.384 173.200,143.075 173.200 C 143.006 173.200,142.421 173.785,141.775 174.500 M309.753 173.700 C 308.376 176.036,308.286 176.235,308.987 175.400 C 309.800 174.432,310.500 173.200,310.238 173.200 C 310.133 173.200,309.915 173.425,309.753 173.700 M90.046 175.667 C 90.021 176.034,89.896 176.664,89.770 177.067 C 89.552 177.762,89.563 177.763,89.997 177.087 C 90.248 176.696,90.373 176.066,90.273 175.687 C 90.111 175.068,90.088 175.066,90.046 175.667 M175.600 176.925 C 175.600 176.994,176.185 177.579,176.900 178.225 L 178.200 179.400 177.025 178.100 C 175.930 176.888,175.600 176.616,175.600 176.925 M88.220 183.700 C 87.923 184.664,87.670 187.664,87.906 187.427 C 88.170 187.164,88.741 183.200,88.516 183.200 C 88.438 183.200,88.305 183.425,88.220 183.700 M134.446 188.867 C 134.421 189.234,134.296 189.864,134.170 190.267 C 133.952 190.962,133.963 190.963,134.397 190.287 C 134.648 189.896,134.773 189.266,134.673 188.887 C 134.511 188.268,134.488 188.266,134.446 188.867 M183.297 219.876 C 183.243 236.623,183.044 250.049,182.848 250.170 C 182.499 250.386,181.944 252.000,182.219 252.000 C 183.510 252.000,183.606 249.573,183.500 219.591 L 183.395 189.800 183.297 219.876 M297.021 194.377 C 296.634 194.804,296.412 195.389,296.527 195.677 C 296.689 196.080,296.744 196.069,296.768 195.631 C 296.786 195.319,297.098 194.734,297.462 194.331 C 297.826 193.929,298.034 193.600,297.924 193.600 C 297.814 193.600,297.408 193.950,297.021 194.377 M132.649 197.415 C 132.512 197.773,132.426 198.906,132.459 199.933 C 132.516 201.760,132.523 201.749,132.790 199.400 C 133.080 196.837,133.048 196.377,132.649 197.415 M86.140 200.800 C 86.140 202.670,86.209 203.435,86.293 202.500 C 86.377 201.565,86.377 200.035,86.293 199.100 C 86.209 198.165,86.140 198.930,86.140 200.800 M293.886 199.510 L 293.173 201.000 293.977 200.000 C 294.420 199.450,294.786 198.775,294.791 198.500 C 294.805 197.733,294.660 197.895,293.886 199.510 M131.680 207.800 C 131.631 210.000,131.506 212.520,131.402 213.400 L 131.212 215.000 131.619 213.407 C 131.843 212.532,131.968 210.012,131.897 207.807 L 131.769 203.800 131.680 207.800 M85.379 219.400 C 85.379 226.660,85.433 229.686,85.499 226.125 C 85.565 222.564,85.566 216.624,85.499 212.925 C 85.433 209.226,85.379 212.140,85.379 219.400 M235.654 216.276 C 235.625 217.638,235.735 218.836,235.900 218.938 C 236.065 219.040,236.147 218.286,236.083 217.262 C 235.884 214.088,235.711 213.691,235.654 216.276 M237.611 222.400 C 237.615 222.730,237.989 223.450,238.444 224.000 C 238.898 224.550,239.153 224.774,239.010 224.499 C 237.819 222.194,237.606 221.874,237.611 222.400 M131.501 228.600 C 131.588 231.020,131.722 233.180,131.798 233.400 C 132.075 234.200,131.912 226.171,131.631 225.200 C 131.473 224.650,131.414 226.180,131.501 228.600 M86.061 237.800 C 86.034 239.560,86.150 241.217,86.318 241.481 C 86.486 241.746,86.565 240.666,86.494 239.081 C 86.298 234.753,86.115 234.211,86.061 237.800 M132.428 237.433 C 132.444 238.295,132.609 239.360,132.796 239.800 C 133.008 240.298,133.051 239.769,132.912 238.400 C 132.644 235.765,132.389 235.257,132.428 237.433 M296.425 237.537 C 296.411 237.832,296.760 238.531,297.200 239.091 C 297.640 239.650,298.000 239.914,298.000 239.678 C 298.000 239.441,297.807 239.128,297.572 238.983 C 297.337 238.837,296.988 238.332,296.797 237.859 C 296.607 237.387,296.439 237.242,296.425 237.537 M134.244 246.600 C 134.573 248.071,134.802 248.390,134.794 247.367 C 134.791 246.945,134.605 246.330,134.382 246.000 C 134.085 245.562,134.048 245.724,134.244 246.600 M87.931 252.510 C 88.014 253.440,88.203 254.330,88.351 254.490 C 88.498 254.649,88.551 254.019,88.469 253.090 C 88.386 252.160,88.197 251.270,88.049 251.110 C 87.902 250.951,87.849 251.581,87.931 252.510 M136.402 252.639 C 136.400 253.137,137.576 255.600,137.817 255.600 C 138.012 255.600,137.613 254.528,136.924 253.200 C 136.638 252.650,136.404 252.397,136.402 252.639 M254.590 252.701 C 255.781 255.006,255.994 255.326,255.989 254.800 C 255.985 254.470,255.611 253.750,255.156 253.200 C 254.702 252.650,254.447 252.426,254.590 252.701 M88.856 256.800 C 88.856 257.130,89.011 257.760,89.200 258.200 C 89.417 258.704,89.544 258.778,89.544 258.400 C 89.544 258.070,89.389 257.440,89.200 257.000 C 88.983 256.496,88.856 256.422,88.856 256.800 M139.164 257.933 C 139.380 258.336,139.871 258.921,140.255 259.233 C 140.687 259.584,140.590 259.304,140.001 258.500 C 138.951 257.065,138.557 256.798,139.164 257.933 M171.606 262.823 C 170.840 263.250,170.480 263.596,170.806 263.591 C 171.133 263.586,171.850 263.230,172.400 262.800 C 173.656 261.817,173.396 261.825,171.606 262.823 M150.000 266.155 C 150.000 266.240,150.530 266.387,151.179 266.482 C 151.827 266.577,152.267 266.508,152.155 266.328 C 151.957 266.007,150.000 265.850,150.000 266.155 M162.652 266.316 C 162.544 266.490,163.073 266.561,163.828 266.473 C 164.583 266.385,165.200 266.242,165.200 266.156 C 165.200 265.855,162.845 266.003,162.652 266.316 M156.905 267.087 C 157.514 267.179,158.414 267.177,158.905 267.082 C 159.397 266.987,158.900 266.911,157.800 266.914 C 156.700 266.917,156.297 266.995,156.905 267.087 M314.411 268.000 C 314.415 268.330,314.789 269.050,315.244 269.600 C 315.698 270.150,315.953 270.374,315.810 270.099 C 314.619 267.794,314.406 267.474,314.411 268.000 M92.706 270.618 C 92.810 271.165,93.028 271.694,93.190 271.794 C 93.352 271.894,93.399 271.529,93.294 270.982 C 93.190 270.435,92.972 269.906,92.810 269.806 C 92.648 269.706,92.601 270.071,92.706 270.618 M266.800 274.697 C 266.800 274.920,267.070 275.326,267.400 275.600 C 267.730 275.874,268.004 276.301,268.009 276.549 C 268.014 276.797,268.389 277.450,268.842 278.000 L 269.667 279.000 268.933 277.600 C 267.986 275.792,266.800 274.178,266.800 274.697 M320.990 279.501 C 322.181 281.806,322.394 282.126,322.389 281.600 C 322.385 281.270,322.011 280.550,321.556 280.000 C 321.102 279.450,320.847 279.226,320.990 279.501 M184.006 284.633 C 184.009 285.275,184.184 286.070,184.395 286.400 C 184.655 286.809,184.699 286.490,184.532 285.400 C 184.229 283.423,183.998 283.086,184.006 284.633 M272.659 285.100 C 272.760 285.485,273.200 286.250,273.636 286.800 C 274.368 287.722,274.363 287.667,273.575 286.100 C 272.665 284.292,272.359 283.958,272.659 285.100 M100.364 285.533 C 100.580 285.936,101.071 286.521,101.455 286.833 C 101.887 287.184,101.790 286.904,101.201 286.100 C 100.151 284.665,99.757 284.398,100.364 285.533 M176.629 289.962 L 175.458 291.400 176.809 290.113 C 177.551 289.405,178.078 288.758,177.979 288.675 C 177.881 288.592,177.273 289.171,176.629 289.962 M106.592 292.700 C 108.788 294.955,110.858 296.786,111.192 296.768 C 111.727 296.741,111.728 296.711,111.200 296.523 C 110.870 296.405,108.800 294.575,106.600 292.455 L 102.600 288.600 106.592 292.700 M327.400 290.400 C 327.741 291.060,328.111 291.600,328.221 291.600 C 328.331 291.600,328.141 291.060,327.800 290.400 C 327.459 289.740,327.089 289.200,326.979 289.200 C 326.869 289.200,327.059 289.740,327.400 290.400 M173.200 293.400 C 172.228 294.390,171.523 295.200,171.633 295.200 C 171.743 295.200,172.628 294.390,173.600 293.400 C 174.572 292.410,175.277 291.600,175.167 291.600 C 175.057 291.600,174.172 292.410,173.200 293.400 M185.075 295.458 C 185.200 296.746,185.426 297.938,185.578 298.107 C 185.730 298.277,185.726 297.320,185.568 295.981 C 185.197 292.833,184.779 292.389,185.075 295.458 M229.800 298.801 C 229.648 299.493,228.964 300.721,228.280 301.530 L 227.036 303.000 228.309 301.834 C 229.501 300.742,230.728 298.194,230.278 297.745 C 230.167 297.634,229.952 298.109,229.800 298.801 M280.402 298.220 C 280.398 298.897,281.371 300.793,281.724 300.797 C 281.902 300.799,281.936 300.619,281.799 300.399 C 281.663 300.178,281.293 299.503,280.978 298.899 C 280.663 298.294,280.404 297.989,280.402 298.220 M186.800 300.525 C 186.800 300.594,187.385 301.179,188.100 301.825 L 189.400 303.000 188.225 301.700 C 187.130 300.488,186.800 300.216,186.800 300.525 M329.414 301.435 C 329.041 302.004,328.805 302.538,328.889 302.622 C 328.973 302.707,329.358 302.241,329.744 301.588 C 330.606 300.128,330.348 300.009,329.414 301.435 M119.200 301.831 C 119.200 302.101,121.278 302.856,121.476 302.657 C 121.567 302.567,121.092 302.301,120.420 302.067 C 119.749 301.833,119.200 301.727,119.200 301.831 M154.600 304.000 L 153.400 304.305 154.476 304.353 C 155.068 304.379,155.664 304.220,155.800 304.000 C 155.936 303.780,155.992 303.621,155.924 303.647 C 155.856 303.673,155.260 303.832,154.600 304.000 M151.600 304.693 C 149.631 304.924,149.275 305.452,151.213 305.267 C 152.089 305.184,152.905 304.955,153.026 304.758 C 153.148 304.561,153.192 304.429,153.124 304.464 C 153.056 304.499,152.370 304.602,151.600 304.693 M128.433 304.943 C 128.525 305.022,129.320 305.197,130.200 305.332 C 131.290 305.499,131.609 305.455,131.200 305.195 C 130.653 304.846,128.045 304.609,128.433 304.943 M136.365 306.126 C 136.544 306.305,137.481 306.391,138.446 306.318 L 140.200 306.185 138.119 305.993 C 136.975 305.887,136.185 305.947,136.365 306.126 M143.600 306.000 C 142.216 306.291,142.214 306.295,143.400 306.341 C 144.060 306.367,144.870 306.213,145.200 306.000 C 145.866 305.570,145.645 305.570,143.600 306.000 " stroke="none" fill="#abacac" fill-rule="evenodd"></path><path id="path3" d="M196.928 75.100 C 202.168 75.163,210.628 75.163,215.728 75.100 C 220.827 75.036,216.540 74.985,206.200 74.985 C 195.860 74.985,191.687 75.037,196.928 75.100 M226.924 76.066 C 227.542 76.581,228.413 77.452,228.859 78.001 C 229.305 78.551,229.537 78.730,229.375 78.400 C 228.909 77.449,227.473 75.963,226.600 75.528 C 226.144 75.300,226.283 75.531,226.924 76.066 M229.800 189.239 C 229.800 249.523,229.917 298.432,230.060 297.924 C 230.408 296.689,230.420 81.191,230.072 80.315 C 229.922 79.938,229.800 128.954,229.800 189.239 M148.200 134.397 C 148.964 134.728,151.914 134.955,151.567 134.656 C 151.475 134.577,150.500 134.409,149.400 134.282 C 148.113 134.133,147.685 134.174,148.200 134.397 M129.905 134.683 C 130.402 134.779,131.122 134.775,131.505 134.675 C 131.887 134.575,131.480 134.496,130.600 134.501 C 129.720 134.505,129.407 134.587,129.905 134.683 M124.800 135.618 C 124.362 135.915,124.524 135.952,125.400 135.756 C 126.871 135.427,127.190 135.198,126.167 135.206 C 125.745 135.209,125.130 135.395,124.800 135.618 M120.200 137.085 C 118.975 137.380,118.598 137.928,119.776 137.703 C 120.346 137.594,120.910 137.346,121.030 137.152 C 121.149 136.959,121.192 136.821,121.124 136.846 C 121.056 136.872,120.640 136.979,120.200 137.085 M283.738 138.306 C 283.484 138.468,292.332 138.600,303.400 138.600 C 314.468 138.600,323.440 138.465,323.338 138.300 C 323.098 137.912,284.348 137.918,283.738 138.306 M325.223 139.758 C 325.541 140.175,326.023 140.985,326.296 141.558 L 326.792 142.600 326.554 141.600 C 326.423 141.050,325.941 140.240,325.482 139.800 C 324.757 139.106,324.723 139.101,325.223 139.758 M111.260 142.003 C 110.347 142.664,109.600 143.303,109.600 143.423 C 109.600 143.611,111.854 142.077,112.980 141.122 C 113.927 140.319,112.756 140.918,111.260 142.003 M106.585 146.100 L 104.600 148.200 106.792 146.200 C 107.997 145.100,109.062 144.155,109.158 144.100 C 109.255 144.045,109.162 144.000,108.952 144.000 C 108.742 144.000,107.677 144.945,106.585 146.100 M277.353 146.100 C 275.976 148.436,275.886 148.635,276.587 147.800 C 277.400 146.832,278.100 145.600,277.838 145.600 C 277.733 145.600,277.515 145.825,277.353 146.100 M172.400 146.125 C 172.400 146.194,172.985 146.779,173.700 147.425 L 175.000 148.600 173.825 147.300 C 172.730 146.088,172.400 145.816,172.400 146.125 M323.353 150.900 C 321.976 153.236,321.886 153.435,322.587 152.600 C 323.400 151.632,324.100 150.400,323.838 150.400 C 323.733 150.400,323.515 150.625,323.353 150.900 M269.753 158.500 C 268.376 160.836,268.286 161.035,268.987 160.200 C 269.800 159.232,270.500 158.000,270.238 158.000 C 270.133 158.000,269.915 158.225,269.753 158.500 M267.753 161.700 C 266.376 164.036,266.286 164.235,266.987 163.400 C 267.800 162.432,268.500 161.200,268.238 161.200 C 268.133 161.200,267.915 161.425,267.753 161.700 M92.679 167.900 C 92.369 168.453,91.932 170.602,92.180 170.354 C 92.477 170.056,93.205 167.600,92.996 167.600 C 92.914 167.600,92.771 167.735,92.679 167.900 M156.900 168.276 C 157.285 168.376,157.915 168.376,158.300 168.276 C 158.685 168.175,158.370 168.093,157.600 168.093 C 156.830 168.093,156.515 168.175,156.900 168.276 M262.153 170.900 C 260.776 173.236,260.686 173.435,261.387 172.600 C 262.200 171.632,262.900 170.400,262.638 170.400 C 262.533 170.400,262.315 170.625,262.153 170.900 M139.504 176.844 C 138.901 177.700,138.487 178.400,138.583 178.400 C 138.869 178.400,140.926 175.592,140.756 175.433 C 140.670 175.354,140.107 175.988,139.504 176.844 M89.808 177.800 C 89.247 180.501,89.197 180.987,89.540 180.400 C 89.926 179.741,90.450 176.800,90.182 176.800 C 90.090 176.800,89.922 177.250,89.808 177.800 M254.553 183.300 C 253.176 185.636,253.086 185.835,253.787 185.000 C 254.600 184.032,255.300 182.800,255.038 182.800 C 254.933 182.800,254.715 183.025,254.553 183.300 M135.579 184.255 C 135.358 184.836,135.252 185.385,135.343 185.476 C 135.433 185.567,135.699 185.092,135.933 184.420 C 136.453 182.928,136.139 182.782,135.579 184.255 M87.849 187.415 C 87.712 187.773,87.625 188.816,87.656 189.733 C 87.709 191.301,87.729 191.270,87.992 189.200 C 88.290 186.855,88.251 186.368,87.849 187.415 M87.049 192.215 C 86.912 192.573,86.828 193.886,86.863 195.133 L 86.926 197.400 87.186 194.600 C 87.464 191.598,87.441 191.195,87.049 192.215 M132.901 195.000 C 132.905 195.880,132.987 196.193,133.083 195.695 C 133.179 195.198,133.175 194.478,133.075 194.095 C 132.975 193.713,132.896 194.120,132.901 195.000 M131.822 201.822 C 131.672 202.625,131.628 203.362,131.726 203.460 C 131.824 203.557,132.027 202.981,132.178 202.178 C 132.328 201.375,132.372 200.638,132.274 200.540 C 132.176 200.443,131.973 201.019,131.822 201.822 M242.153 203.300 C 240.776 205.636,240.686 205.835,241.387 205.000 C 242.200 204.032,242.900 202.800,242.638 202.800 C 242.533 202.800,242.315 203.025,242.153 203.300 M85.822 206.222 C 85.672 207.025,85.628 207.762,85.726 207.860 C 85.824 207.957,86.027 207.381,86.178 206.578 C 86.328 205.775,86.372 205.038,86.274 204.940 C 86.176 204.843,85.973 205.419,85.822 206.222 M130.964 219.400 C 130.963 223.140,131.023 224.724,131.097 222.920 C 131.171 221.115,131.172 218.055,131.098 216.120 C 131.025 214.184,130.964 215.660,130.964 219.400 M85.686 231.200 C 85.683 231.970,85.824 233.050,86.000 233.600 C 86.450 235.004,86.465 233.537,86.023 231.400 L 85.692 229.800 85.686 231.200 M132.682 241.221 C 132.808 242.199,132.975 243.075,133.055 243.167 C 133.381 243.542,133.160 240.555,132.821 240.021 C 132.584 239.646,132.535 240.070,132.682 241.221 M86.724 243.115 C 86.812 244.592,87.001 245.927,87.145 246.083 C 87.288 246.238,87.313 245.127,87.201 243.614 C 87.089 242.101,86.899 240.766,86.780 240.647 C 86.661 240.528,86.636 241.639,86.724 243.115 M249.225 242.700 C 249.696 243.635,250.136 244.400,250.203 244.400 C 250.524 244.400,249.871 242.891,249.164 242.000 C 248.432 241.078,248.437 241.133,249.225 242.700 M87.606 248.633 C 87.609 249.495,87.770 250.449,87.963 250.754 C 88.178 251.093,88.232 250.549,88.104 249.354 C 87.842 246.917,87.598 246.564,87.606 248.633 M302.190 247.901 C 303.381 250.206,303.594 250.526,303.589 250.000 C 303.585 249.670,303.211 248.950,302.756 248.400 C 302.302 247.850,302.047 247.626,302.190 247.901 M135.418 251.300 C 135.568 251.795,135.855 252.376,136.056 252.591 C 136.257 252.806,136.219 252.401,135.972 251.691 C 135.465 250.238,134.997 249.908,135.418 251.300 M305.160 253.000 C 305.834 254.305,306.388 255.028,306.385 254.600 C 306.383 254.380,306.014 253.750,305.564 253.200 C 305.021 252.536,304.885 252.469,305.160 253.000 M89.606 258.833 C 89.609 259.365,89.789 260.070,90.006 260.400 C 90.282 260.822,90.323 260.585,90.142 259.600 C 89.825 257.875,89.598 257.549,89.606 258.833 M259.059 260.300 C 259.160 260.685,259.600 261.450,260.036 262.000 C 260.768 262.922,260.763 262.867,259.975 261.300 C 259.065 259.492,258.759 259.158,259.059 260.300 M140.800 260.525 C 140.800 260.594,141.385 261.179,142.100 261.825 L 143.400 263.000 142.225 261.700 C 141.130 260.488,140.800 260.216,140.800 260.525 M90.456 262.000 C 90.456 262.330,90.611 262.960,90.800 263.400 C 91.017 263.904,91.144 263.978,91.144 263.600 C 91.144 263.270,90.989 262.640,90.800 262.200 C 90.583 261.696,90.456 261.622,90.456 262.000 M152.700 267.082 C 153.195 267.178,154.005 267.178,154.500 267.082 C 154.995 266.987,154.590 266.909,153.600 266.909 C 152.610 266.909,152.205 266.987,152.700 267.082 M160.705 267.083 C 161.202 267.179,161.922 267.175,162.305 267.075 C 162.687 266.975,162.280 266.896,161.400 266.901 C 160.520 266.905,160.207 266.987,160.705 267.083 M157.100 267.482 C 157.595 267.578,158.405 267.578,158.900 267.482 C 159.395 267.387,158.990 267.309,158.000 267.309 C 157.010 267.309,156.605 267.387,157.100 267.482 M183.397 277.375 C 183.289 277.719,183.112 278.279,183.005 278.621 C 182.896 278.966,182.985 279.133,183.205 278.997 C 183.422 278.863,183.632 278.358,183.672 277.876 C 183.712 277.394,183.859 278.350,184.000 280.000 L 184.256 283.000 184.328 280.124 C 184.394 277.471,183.862 275.900,183.397 277.375 M184.940 289.600 C 184.940 291.470,185.009 292.235,185.093 291.300 C 185.177 290.365,185.177 288.835,185.093 287.900 C 185.009 286.965,184.940 287.730,184.940 289.600 M274.411 287.200 C 274.415 287.530,274.789 288.250,275.244 288.800 C 275.698 289.350,275.953 289.574,275.810 289.299 C 274.619 286.994,274.406 286.674,274.411 287.200 M276.349 291.000 C 276.565 291.440,277.034 292.160,277.393 292.600 L 278.044 293.400 277.651 292.600 C 277.435 292.160,276.966 291.440,276.607 291.000 L 275.956 290.200 276.349 291.000 M171.600 294.482 C 170.390 295.611,169.760 296.338,170.200 296.099 C 170.969 295.680,174.353 292.384,173.981 292.415 C 173.882 292.424,172.810 293.354,171.600 294.482 M329.800 297.802 C 329.800 299.410,329.932 300.518,330.094 300.263 C 330.481 299.653,330.486 295.300,330.100 295.063 C 329.935 294.962,329.800 296.195,329.800 297.802 M279.211 295.600 C 279.215 295.930,279.589 296.650,280.044 297.200 C 280.498 297.750,280.753 297.974,280.610 297.699 C 279.419 295.394,279.206 295.074,279.211 295.600 M186.764 299.933 C 186.980 300.336,187.471 300.921,187.855 301.233 C 188.287 301.584,188.190 301.304,187.601 300.500 C 186.551 299.065,186.157 298.798,186.764 299.933 M228.399 300.900 C 227.810 301.704,227.713 301.984,228.145 301.633 C 228.801 301.100,229.793 299.600,229.489 299.600 C 229.413 299.600,228.922 300.185,228.399 300.900 M328.041 302.234 C 327.293 302.765,326.878 303.200,327.119 303.200 C 327.359 303.200,328.060 302.756,328.678 302.213 C 330.091 300.969,329.808 300.979,328.041 302.234 M122.000 302.682 C 123.720 303.440,125.799 304.066,125.456 303.722 C 125.177 303.443,121.159 301.981,120.815 302.033 C 120.697 302.051,121.230 302.343,122.000 302.682 M200.100 303.500 C 204.665 303.564,212.135 303.564,216.700 303.500 C 221.265 303.435,217.530 303.383,208.400 303.383 C 199.270 303.383,195.535 303.435,200.100 303.500 M293.927 303.500 C 298.617 303.564,306.177 303.564,310.727 303.499 C 315.277 303.435,311.440 303.383,302.200 303.383 C 292.960 303.383,289.237 303.436,293.927 303.500 M147.000 305.200 L 144.600 305.466 146.800 305.527 C 148.010 305.560,149.270 305.413,149.600 305.200 C 149.930 304.987,150.020 304.840,149.800 304.873 C 149.580 304.907,148.320 305.054,147.000 305.200 M133.107 305.490 C 133.826 305.579,134.906 305.577,135.507 305.486 C 136.108 305.395,135.520 305.322,134.200 305.324 C 132.880 305.326,132.388 305.401,133.107 305.490 M137.300 305.876 C 137.685 305.976,138.315 305.976,138.700 305.876 C 139.085 305.775,138.770 305.693,138.000 305.693 C 137.230 305.693,136.915 305.775,137.300 305.876 " stroke="none" fill="#8c8c8c" fill-rule="evenodd"></path><path id="path4" d="M137.519 133.898 C 139.344 133.972,142.224 133.972,143.919 133.897 C 145.614 133.822,144.120 133.761,140.600 133.762 C 137.080 133.762,135.694 133.824,137.519 133.898 M320.311 303.493 C 321.251 303.578,322.691 303.577,323.511 303.491 C 324.330 303.405,323.560 303.336,321.800 303.337 C 320.040 303.339,319.370 303.409,320.311 303.493 M140.500 306.276 C 140.885 306.376,141.515 306.376,141.900 306.276 C 142.285 306.175,141.970 306.093,141.200 306.093 C 140.430 306.093,140.115 306.175,140.500 306.276 " stroke="none" fill="#8c948c" fill-rule="evenodd"></path></g></svg>